<svg xmlns="http://www.w3.org/2000/svg" class="hide"><symbol id="attachment" viewBox="0 0 544 512"><path d="M89.392 509.872c32.24 0 66.928-16.416 91.312-40.816l270.128-274.704c13.856-13.856 21.568-32.224 21.696-51.696.144-19.52-7.344-37.824-21.056-51.552-28.288-28.272-74.576-28.016-103.392.768l-207.056 216.48c-3.248 3.408-3.136 8.832.288 12.096 3.408 3.264 8.8 3.136 12.096-.272L360.32 103.824c21.968-21.984 57.456-22.256 79.056-.64 10.448 10.448 16.16 24.416 16.048 39.328-.096 14.96-6.032 29.056-16.736 39.776L168.56 457.008c-28.416 28.4-86.816 54.16-121.84 19.104-16.592-16.592-24.912-36.944-24.048-58.864.848-21.76 11.088-43.52 28.912-61.328L360.32 42.576c16.416-16.416 42.064-25.92 70.336-26.016h.512c28.032 0 53.328 9.232 69.472 25.376 16.256 16.24 25.504 41.744 25.392 69.984-.112 28.272-9.616 53.904-26.144 70.432l-238.32 247.76c-3.28 3.408-3.168 8.816.24 12.096 3.392 3.264 8.816 3.168 12.08-.24L512.096 194.32c19.6-19.584 30.912-49.6 31.024-82.336.144-32.752-10.944-62.704-30.384-82.144-19.328-19.328-49.024-30.4-81.568-30.4h-.576c-32.752.128-62.768 11.44-82.4 31.072L39.44 343.872c-43.216 43.216-45.232 103.92-4.816 144.336 15.152 15.136 34.464 21.664 54.768 21.664z"/></symbol><symbol id="bookmark" viewBox="0 0 448 512"><path d="M24 144c-4.416 0-8 3.584-8 8v335.136c0 10.64 5.056 16.624 9.312 19.76C30.4 510.672 36.384 512 41.728 512c3.216 0 6.192-.48 8.608-1.232 46.864-14.32 149.52-119.712 175.568-147.04 25.392 27.488 124.88 132.72 171.744 147.04 6.464 1.984 16.88 2.16 25.024-3.888 4.272-3.136 9.328-9.104 9.328-19.744V152c0-4.416-3.584-8-8-8s-8 3.584-8 8v335.136c0 4.32-1.616 6-2.832 6.896-2.848 2.112-7.744 2.4-10.832 1.456-48.64-14.864-169.2-147.52-170.4-148.848a7.994 7.994 0 0 0-5.872-2.64c-2.032-.016-4.368.896-5.904 2.544-1.248 1.328-125.792 134.048-174.496 148.944-3.072.944-7.984.656-10.832-1.456-1.216-.896-2.832-2.592-2.832-6.896V152c0-4.416-3.584-8-8-8zm424-40V24c0-13.232-10.768-24-24-24H24C10.768 0 0 10.768 0 24v80c0 4.416 3.584 8 8 8h432c4.416 0 8-3.584 8-8zm-16-8H16V24c0-4.416 3.584-8 8-8h400c4.416 0 8 3.584 8 8v72z"/></symbol><symbol id="bulb" viewBox="0 0 352 512"><path d="M176 0C91.36 0 0 67.296 0 176c0 53.648 21.344 98.784 62.336 132.992a7.655 7.655 0 0 0 1.472 1.408c30.416 32.992 31.952 39.264 32.16 53.776.096 5.744.048 7.44 0 8.368l-.064 3.344c-.24 7.232-.608 19.344 14.384 23.92l129.504 28.496a7.91 7.91 0 0 0 1.712.192c3.68 0 6.992-2.544 7.808-6.288.96-4.32-1.776-8.592-6.096-9.536l-128.88-28.336c-2.48-.752-2.688-.816-2.464-7.968l.048-3.056s.16-1.248.032-9.376c-.304-20.304-4.72-30.112-36.944-64.944a8.012 8.012 0 0 0-2.208-1.888C35.104 265.056 16 224.32 16 176 16 77.168 99.04 16 176 16c78.656 0 160 59.856 160 160 0 63.648-30.848 98.736-56.288 120.816a7.764 7.764 0 0 0-2.352 1.744c-32.592 35.264-37.008 45.072-37.312 65.376 0 .48-.016 1.04 0 1.648l-.016.56c-.048 1.216-.224 1.888-.208 2.144-.544-.08-1.872-.288-1.872-.288l-67.12-15.792c-4.352-.992-8.608 1.664-9.616 5.952a8.016 8.016 0 0 0 5.952 9.632l66.304 15.552c.88.32 8.848 2.912 15.568-1.808 2.928-2.064 6.336-6.112 6.944-13.856l.048-.752c.016-.512.032-1.04.032-1.584 0-.144 0-.288-.016-.416l.016-.736c.208-14.432 1.712-20.704 32.08-53.696.144-.112.304-.224.432-.352C331.248 274.288 352 230.4 352 176 352 65.84 262.512 0 176 0zm64 472c3.664 0 6.96-2.512 7.792-6.24.992-4.304-1.712-8.592-6.032-9.568l-128-29.024c-4.336-.96-8.592 1.728-9.568 6.032-.992 4.304 1.712 8.592 6.032 9.568l128 29.024c.608.144 1.2.208 1.776.208zm-118.256.864a8.018 8.018 0 0 0-9.568 6.048c-.96 4.32 1.744 8.592 6.064 9.552l104 23.328A7.542 7.542 0 0 0 224 512c3.664 0 6.976-2.528 7.808-6.256.96-4.32-1.744-8.592-6.064-9.552l-104-23.328z"/></symbol><symbol id="calendar" viewBox="0 0 544 512"><path d="M544 488V184c0-4.416-3.584-8-8-8s-8 3.584-8 8v304c0 4.416-3.584 8-8 8H24c-4.416 0-8-3.584-8-8V184c0-4.416-3.584-8-8-8s-8 3.584-8 8v304c0 13.232 10.768 24 24 24h496c13.232 0 24-10.768 24-24zM72 368c-4.416 0-8 3.584-8 8s3.584 8 8 8h24v56c0 4.416 3.584 8 8 8s8-3.584 8-8v-56h96v56c0 4.416 3.584 8 8 8s8-3.584 8-8v-56h96v56c0 4.416 3.584 8 8 8s8-3.584 8-8v-56h96v56c0 4.416 3.584 8 8 8s8-3.584 8-8v-56h24c4.416 0 8-3.584 8-8s-3.584-8-8-8h-24v-80h24c4.416 0 8-3.584 8-8s-3.584-8-8-8h-24v-72c0-4.416-3.584-8-8-8s-8 3.584-8 8v72h-96v-72c0-4.416-3.584-8-8-8s-8 3.584-8 8v72h-96v-72c0-4.416-3.584-8-8-8s-8 3.584-8 8v72h-96v-72c0-4.416-3.584-8-8-8s-8 3.584-8 8v72H72c-4.416 0-8 3.584-8 8s3.584 8 8 8h24v80H72zm360-80v80h-96v-80h96zm-112 0v80h-96v-80h96zm-208 0h96v80h-96v-80zM456 48h68c1.392 0 4 0 4 8v72H16V56c0-4.416 3.584-8 8-8h64c4.416 0 8-3.584 8-8s-3.584-8-8-8H24C10.768 32 0 42.768 0 56v80c0 4.416 3.584 8 8 8h528c4.416 0 8-3.584 8-8V56c0-17.696-10.336-24-20-24h-68c-4.416 0-8 3.584-8 8s3.584 8 8 8zm-96 0c4.416 0 8-3.584 8-8s-3.584-8-8-8H184c-4.416 0-8 3.584-8 8s3.584 8 8 8h176zM144 72V8c0-4.416-3.584-8-8-8s-8 3.584-8 8v64c0 4.416 3.584 8 8 8s8-3.584 8-8zm264 8c4.416 0 8-3.584 8-8V8c0-4.416-3.584-8-8-8s-8 3.584-8 8v64c0 4.416 3.584 8 8 8z"/></symbol><symbol id="cogs" viewBox="0 0 672 512"><path d="M59.072 347.52c2.816.672 6.64 4.144 7.744 7.312l5.6 13.504c1.264 2.592 1.024 7.728-.48 10.192l-22.352 36.544c-4.784 7.84-3.792 18.944 2.64 26.144l18.928 18.912c6.592 5.856 18.224 6.912 25.808 2.32l36.544-22.352c2.288-1.408 7.2-1.904 10.64-.288l13.488 5.568c2.72.944 6.192 4.752 6.864 7.568l10.032 41.664c2.128 8.832 10.56 16.096 19.616 16.928 0 0 5.552.512 13.872.512s13.872-.512 13.888-.512c9.04-.816 17.472-8.096 19.6-16.928l10.048-41.664c.672-2.8 4.128-6.624 7.296-7.728l13.504-5.6c2.384-1.168 7.904-.928 10.192.48l36.544 22.352c3.216 1.968 7.056 3.008 11.136 3.008 5.52 0 10.864-1.936 15.008-5.632l18.912-18.928c6.112-6.864 7.104-17.968 2.32-25.808l-22.352-36.544c-1.504-2.464-1.744-7.6-.288-10.64l5.568-13.488c.944-2.72 4.752-6.192 7.568-6.864l41.664-10.032c8.832-2.128 16.096-10.56 16.928-19.616 0 0 .512-5.552.512-13.872s-.512-13.872-.512-13.888c-.816-9.04-8.096-17.472-16.928-19.616l-41.648-10.016c-2.816-.672-6.64-4.144-7.744-7.312l-5.6-13.504c-1.264-2.592-1.024-7.728.48-10.192l22.352-36.544c4.784-7.84 3.792-18.944-2.64-26.144l-18.928-18.912c-6.608-5.872-18.256-6.928-25.808-2.32l-36.544 22.352c-2.288 1.392-7.216 1.92-10.64.288l-13.488-5.568c-2.72-.944-6.176-4.752-6.848-7.568l-10.048-41.664c-2.128-8.832-10.56-16.096-19.616-16.928-.032.016-5.584-.496-13.904-.496s-13.872.512-13.888.512c-9.04.816-17.472 8.096-19.616 16.928l-10.016 41.632c-.672 2.816-4.144 6.64-7.312 7.744l-13.504 5.6c-2.4 1.168-7.904.912-10.192-.48l-36.528-22.352c-7.568-4.608-18.96-3.808-26.144 2.624l-18.912 18.928c-6.112 6.864-7.104 17.968-2.32 25.808l22.352 36.544c1.504 2.464 1.744 7.6.288 10.64l-5.568 13.488c-.944 2.72-4.752 6.192-7.568 6.864l-41.664 10.032C8.576 272.64 1.312 281.072.48 290.128c.032 0-.48 5.552-.48 13.872s.512 13.872.512 13.888c.816 9.04 8.096 17.472 16.928 19.616l41.632 10.016zM16 304c0-7.328.432-12.272.448-12.432.192-2.16 2.64-4.992 4.736-5.504l41.664-10.032c8.08-1.952 16.224-9.344 18.752-16.752l5.184-12.592c3.648-7.472 3.136-18.448-1.2-25.552l-22.352-36.528c-1.072-1.776-.768-5.296.288-6.496l18.256-18.272c1.456-1.296 5.168-1.616 6.832-.608l36.544 22.352c6.928 4.24 18.8 4.528 25.088 1.408l12.608-5.216c7.856-2.704 15.248-10.848 17.2-18.944l10.016-41.648c.512-2.112 3.344-4.56 5.504-4.752.16 0 5.104-.432 12.432-.432s12.272.432 12.432.448c2.16.192 4.992 2.64 5.504 4.736l10.032 41.648c1.952 8.08 9.328 16.24 16.752 18.768l12.592 5.184c7.312 3.584 18.64 3.024 25.552-1.2l36.528-22.352c1.664-1.008 5.6-.48 6.496.288l18.272 18.256c1.376 1.552 1.68 5.056.608 6.832l-22.352 36.544c-4.336 7.088-4.848 18.08-1.408 25.088l5.216 12.608c2.704 7.856 10.848 15.248 18.944 17.2l41.648 10.016c2.112.512 4.56 3.344 4.752 5.504 0 .16.432 5.104.432 12.432s-.432 12.272-.448 12.432c-.192 2.16-2.64 4.992-4.736 5.504l-41.664 10.032c-8.08 1.952-16.224 9.344-18.752 16.752l-5.184 12.592c-3.648 7.472-3.136 18.448 1.2 25.552l22.352 36.528c1.072 1.776.768 5.296-.288 6.496l-18.256 18.272c-.864.768-2.432 1.264-4.016 1.264-1.104 0-2.128-.24-2.8-.656l-36.544-22.352c-6.912-4.224-18.784-4.528-25.088-1.408l-12.608 5.216c-7.856 2.704-15.248 10.864-17.184 18.944l-10.032 41.648c-.512 2.112-3.344 4.56-5.504 4.752-.176 0-5.12.432-12.448.432s-12.272-.432-12.432-.448c-2.16-.192-4.992-2.64-5.504-4.736l-10.032-41.664c-1.952-8.08-9.344-16.224-16.752-18.752l-12.592-5.184c-3.264-1.6-7.216-2.432-11.44-2.432-5.264 0-10.272 1.296-14.112 3.648l-36.528 22.352c-1.664 1.008-5.616.464-6.496-.288L63.84 430.224c-1.376-1.552-1.68-5.056-.608-6.832l22.352-36.544c4.336-7.088 4.848-18.08 1.408-25.088l-5.216-12.608c-2.704-7.856-10.848-15.248-18.944-17.2l-41.648-10.016c-2.112-.512-4.56-3.344-4.752-5.504 0-.16-.432-5.104-.432-12.432zm192 88c48.528 0 88-39.472 88-88s-39.472-88-88-88-88 39.472-88 88 39.472 88 88 88zm0-160c39.696 0 72 32.304 72 72s-32.304 72-72 72-72-32.304-72-72 32.304-72 72-72zM439.632 85.024c-.64.976-2.96 2.208-4.144 2.208l-29.776-.288c-7.232 0-14.48 5.136-16.848 11.936 0 0-1.312 3.728-2.752 9.44-1.44 5.712-2.048 9.616-2.048 9.616-1.12 7.216 2.896 15.2 9.344 18.576l26.256 13.76c1.008.528 2.496 2.752 2.656 4.368l1.488 10.16c.24 1.12-.528 3.68-1.344 4.48l-21.152 20.736c-5.296 5.184-6.688 14.048-3.04 21.008l9.584 16c4.048 5.952 12.816 8.992 19.696 6.848l29.184-8.928c1.584 0 3.168.608 4.064 1.328l8.24 6.08c.96.64 2.224 2.992 2.208 4.144l-.288 29.632c-.064 7.296 5.056 14.608 11.936 17.008 0 0 3.728 1.312 9.44 2.752 5.712 1.44 9.616 2.048 9.616 2.048.416.064 2.08.192 2.496.192 6.528 0 13.152-3.92 16.08-9.536l13.76-26.256c.528-1.008 2.752-2.496 4.368-2.656l10.608-1.536c1.6 0 3.488.832 4.016 1.376l20.736 21.152c5.04 5.152 13.536 6.992 21.008 3.04l15.984-9.584c6.112-4.16 9.072-12.64 6.864-19.696l-8.832-28.272c-.336-1.088.192-3.712 1.248-4.976l6.08-8.24c.64-.976 2.96-2.208 4.144-2.208l29.776.288c7.232 0 14.48-5.136 16.848-11.936 0 0 1.312-3.728 2.752-9.44 1.44-5.712 2.048-9.616 2.048-9.616 1.12-7.216-2.896-15.2-9.344-18.576l-26.256-13.76c-1.008-.528-2.496-2.752-2.656-4.368l-1.472-10.128c-.24-1.12.528-3.68 1.344-4.48l21.152-20.736c5.296-5.184 6.688-14.048 3.04-21.008l-9.584-16c-4.048-5.936-12.8-9.008-19.696-6.864l-29.2 8.928c-1.584 0-3.168-.608-4.064-1.328l-8.24-6.08c-.96-.64-2.224-2.992-2.208-4.144l.288-29.632c.064-7.296-5.056-14.608-11.936-17.008 0 0-3.728-1.312-9.44-2.752-5.712-1.44-9.616-2.048-9.616-2.048-.416-.048-2.08-.176-2.496-.176-6.528 0-13.152 3.92-16.08 9.536l-13.76 26.256c-.528 1.008-2.752 2.496-4.368 2.656l-10.608 1.52c-1.6 0-3.488-.832-4.016-1.376l-20.736-21.152c-5.024-5.136-13.504-6.992-21.008-3.04l-16 9.568c-6.112 4.16-9.072 12.64-6.864 19.696l8.832 28.272c.336 1.088-.192 3.712-1.248 4.976l-6.064 8.24zm13.12 9.152l5.488-7.456c4.288-5.072 5.952-13.344 3.968-19.664L453.392 38.8c-.08-.448.272-1.456.192-1.472l15.168-9.088 1.808.272 20.752 21.152c3.68 3.744 9.744 6.176 15.44 6.176 1.312 0 2.576-.128 3.264-.304l9.2-1.36c6.592-.576 13.616-5.248 16.688-11.104l13.744-26.24c.256-.4 1.264-.976 1.92-.976.176.016 3.44.56 8.208 1.744 4.752 1.2 7.888 2.272 8.032 2.336.496.208 1.216 1.248 1.248 1.76l-.288 29.632c-.064 6.624 3.92 14.064 9.072 17.424l7.44 5.488c4.944 4.176 13.424 5.936 19.664 3.968l28.384-8.832c.672 0 1.424.416 1.328.208l9.088 15.168c.176.416 0 1.472-.272 1.808l-21.152 20.752c-4.72 4.656-7.168 12.72-5.872 18.704l1.344 9.2c.576 6.592 5.248 13.616 11.12 16.688l26.24 13.744c.448.288 1.008 1.408.976 1.92-.016.176-.56 3.44-1.744 8.208-1.2 4.752-2.272 7.888-2.336 8.032-.208.496-1.248 1.216-1.76 1.248l-29.792-.288c-6.576 0-13.936 3.984-17.264 9.072l-5.472 7.44c-4.288 5.072-5.952 13.344-3.968 19.664l8.816 28.256c.08.432-.272 1.456-.192 1.472l-15.168 9.088-1.808-.272-20.752-21.152c-3.68-3.744-9.744-6.176-15.44-6.176-1.312 0-2.576.128-3.264.304l-9.2 1.36c-6.592.576-13.616 5.248-16.688 11.104l-13.744 26.24c-.256.4-1.264.976-1.92.976-.176-.016-3.44-.56-8.208-1.744-4.752-1.2-7.888-2.272-8.032-2.336-.496-.208-1.216-1.248-1.248-1.76l.288-29.632c.064-6.624-3.92-14.064-9.072-17.424l-7.44-5.488c-3.552-3.008-8.784-4.8-14-4.8-2.016 0-3.936.288-5.68.832l-28.384 8.832c-.688 0-1.44-.368-1.328-.208l-9.088-15.168c-.176-.416 0-1.472.272-1.808l21.152-20.752c4.72-4.656 7.168-12.72 5.872-18.704l-1.344-9.184c-.576-6.592-5.248-13.616-11.12-16.688l-26.24-13.744c-.448-.288-1.008-1.408-.976-1.92.016-.176.56-3.44 1.744-8.208 1.2-4.752 2.272-7.888 2.336-8.032.208-.496 1.248-1.216 1.76-1.248l29.792.288c6.576 0 13.936-3.984 17.264-9.072zM528 192c26.464 0 48-21.536 48-48s-21.536-48-48-48-48 21.536-48 48 21.536 48 48 48zm0-80c17.648 0 32 14.352 32 32s-14.352 32-32 32-32-14.352-32-32 14.352-32 32-32z"/></symbol><symbol id="desktop" viewBox="0 0 624 512"><path d="M24 400h280v24c0 4.416 3.584 8 8 8s8-3.584 8-8v-24h280c13.232 0 24-10.768 24-24V24c0-13.232-10.768-24-24-24H24C10.768 0 0 10.768 0 24v352c0 13.232 10.768 24 24 24zM16 24c0-4.416 3.584-8 8-8h576c4.416 0 8 3.584 8 8v352c0 4.416-3.584 8-8 8H24c-4.416 0-8-3.584-8-8V24zm40 328h512c4.416 0 8-3.584 8-8V56c0-4.416-3.584-8-8-8H56c-4.416 0-8 3.584-8 8v288c0 4.416 3.584 8 8 8zm8-288h496v272H64V64zm160 384c-18.24 0-32 13.76-32 32v24c0 4.416 3.584 8 8 8h224c4.416 0 8-3.584 8-8v-22.8c0-18.608-14.048-33.2-32-33.2H224zm192 33.2V496H208v-16c0-9.424 6.576-16 16-16h176c9.12 0 16 7.392 16 17.2z"/></symbol><symbol id="devices" viewBox="0 0 512 512"><path d="M24 512h224c4.416 0 8-3.584 8-8s-3.584-8-8-8H24c-4.416 0-8-3.584-8-8V24c0-4.416 3.584-8 8-8h336c4.416 0 8 3.584 8 8v80c0 4.416 3.584 8 8 8s8-3.584 8-8V24c0-13.232-10.768-24-24-24H24C10.768 0 0 10.768 0 24v464c0 13.232 10.768 24 24 24zm264-344v320c0 13.232 10.768 24 24 24h176c13.232 0 24-10.768 24-24V168c0-13.232-10.768-24-24-24H312c-13.232 0-24 10.768-24 24zm208 0v320c0 4.416-3.584 8-8 8H312c-4.416 0-8-3.584-8-8V168c0-4.416 3.584-8 8-8h176c4.416 0 8 3.584 8 8zM176 448a16 16 0 1 1 32 0 16 16 0 1 1-32 0zm208 0a16 16 0 1 1 32 0 16 16 0 1 1-32 0z"/></symbol><symbol id="heart-o" viewBox="0 0 592 512"><path d="M432 0c-39.616 0-77.696 14.736-107.264 41.52A159.528 159.528 0 0 0 296 75.984c-7.888-12.752-17.504-24.304-28.736-34.48C237.696 14.736 199.616 0 160 0 71.776 0 0 71.776 0 160c0 59.552 18.528 106.56 61.936 157.2 63.072 73.6 222.704 185.92 229.472 190.672 1.376.976 2.992 1.456 4.592 1.456s3.216-.48 4.592-1.456C307.36 503.12 466.992 390.8 530.08 317.2 573.472 266.56 592 219.552 592 160 592 71.776 520.224 0 432 0zm85.936 306.8C462.016 372.016 323.056 472.256 296 491.52 268.944 472.256 129.984 372.016 74.08 306.8 33.36 259.296 16 215.392 16 160 16 80.592 80.608 16 160 16c35.632 0 69.92 13.264 96.512 37.36 13.408 12.16 24.288 26.496 32.32 42.624 2.72 5.44 11.616 5.44 14.336 0 8.032-16.128 18.912-30.464 32.32-42.608C362.08 29.264 396.368 16 432 16c79.392 0 144 64.592 144 144 0 55.392-17.36 99.296-58.064 146.8z"/></symbol><symbol id="image" viewBox="0 0 512 512"><path d="M24 512h464c13.232 0 24-10.768 24-24V24c0-13.232-10.768-24-24-24H24C10.768 0 0 10.768 0 24v464c0 13.232 10.768 24 24 24zM16 24c0-4.416 3.6-8 8-8h464c4.4 0 8 3.584 8 8v464c0 4.416-3.6 8-8 8H24c-4.4 0-8-3.584-8-8V24zm312 176c17.648 0 32-14.352 32-32s-14.352-32-32-32-32 14.352-32 32 14.352 32 32 32zm0-48c8.832 0 16 7.184 16 16s-7.168 16-16 16-16-7.184-16-16 7.168-16 16-16zM72 400h368c4.416 0 8-3.584 8-8V72c0-4.416-3.584-8-8-8H72c-4.416 0-8 3.584-8 8v320c0 4.416 3.584 8 8 8zm8-16v-90.208c.352-.256.752-.4 1.072-.72l81.856-81.856c4.16-4.16 11.392-4.144 15.552 0l120.336 120.336a7.968 7.968 0 0 0 5.664 2.336 7.999 7.999 0 0 0 5.52-2.208l61.856-58.752a10.945 10.945 0 0 1 7.776-3.232c2.944 0 5.68 1.152 7.536 2.992L432 321.52s.016 0 .016.016V384H80zM432 80v217.888l-33.296-36.256c-5.072-5.104-11.856-7.92-19.056-7.92h-.016c-7.216 0-14 2.816-18.96 7.776l-56.064 53.248-114.816-114.832c-10.224-10.208-27.984-10.192-38.176 0L80 271.536V80h352z"/></symbol><symbol id="laptop" viewBox="0 0 672 512"><path d="M56 416c4.416 0 8-3.584 8-8V32c0-9.568 6.432-16 16-16h512c9.12 0 16 7.488 16 17.424V408c0 4.416 3.584 8 8 8s8-3.584 8-8V33.424C624 14.672 609.952 0 592 0H80C61.456 0 48 13.456 48 32v376c0 4.416 3.584 8 8 8zm48-368c-4.416 0-8 3.584-8 8v352c0 4.416 3.584 8 8 8h464c4.416 0 8-3.584 8-8V56c0-4.416-3.584-8-8-8H104zm456 352H112V64h448v336zm104 48H8c-4.416 0-8 3.584-8 8v18.8C0 493.968 22.528 512 40 512h592c18.32 0 40-21.68 40-40v-16c0-4.416-3.584-8-8-8zm-8 24c0 9.424-14.576 24-24 24H40c-10.096 0-24-12.288-24-21.2V464h640v8z"/></symbol><symbol id="link" viewBox="0 0 512 512"><path d="M303.776 263.536c2.624.288 5.232.416 7.84.416 19.456 0 38.112-7.696 52.128-21.712l118.48-118.48c13.856-13.856 21.584-32.224 21.696-51.696.144-19.52-7.344-37.824-21.056-51.552-13.6-13.6-31.68-21.072-51.008-21.072h-.528c-19.472.128-37.824 7.84-51.68 21.696l-118.48 118.48c-17.52 17.52-25.104 42.384-20.304 66.512.928 4.64 5.536 7.664 10.064 6.704 4.64-.928 7.648-5.424 6.72-10.048-3.696-18.512 2.144-37.616 15.616-51.072l118.48-118.48C402.4 22.56 416.512 16.64 431.456 16.544c15.6 0 28.88 5.6 39.328 16.048s16.16 24.432 16.064 39.328c-.112 14.96-6.032 29.056-16.704 39.712l-118.48 118.48c-12.224 12.208-29.008 18.128-46.064 16.384-4.56-.528-8.912 2.896-9.408 7.6-.512 4.736 2.896 8.944 7.584 9.44zM242.24 372.368c18.368-18.368 25.728-44.304 19.664-69.344-1.104-4.592-5.616-7.456-10.336-6.304-4.592 1.104-7.408 5.728-6.304 10.32 4.656 19.216-1.008 39.104-15.136 53.248l-118.48 118.48c-10.656 10.672-24.768 16.592-39.712 16.688-15.344.08-28.88-5.584-39.328-16.048-10.448-10.448-16.16-24.416-16.048-39.328.096-14.96 6.032-29.056 16.688-39.728l118.48-118.48c12.336-12.336 29.152-18.304 46.496-16.336 4.608.352 8.944-2.832 9.472-7.536a8.569 8.569 0 0 0-7.536-9.472c-22.464-2.528-44.48 5.184-60.528 21.232L21.152 388.24C7.296 402.096-.416 420.464-.544 439.936c-.144 19.52 7.344 37.824 21.056 51.552 13.6 13.6 31.68 21.072 51.008 21.072h.528c19.472-.128 37.824-7.84 51.68-21.696L242.24 372.368zm121.504-230.416a8.546 8.546 0 0 0-12.096 0l-216 216c-3.344 3.328-3.344 8.752 0 12.096 1.664 1.664 3.856 2.512 6.048 2.512s4.368-.832 6.048-2.512l216-216a8.546 8.546 0 0 0 0-12.096z"/></symbol><symbol id="lupe" viewBox="0 0 512 512"><path d="M168 0C75.36 0 0 75.36 0 168s75.36 168 168 168c43.6 0 83.248-16.832 113.136-44.16.352.624.672 1.28 1.216 1.824l34.416 34.416c-2.88 4.864-4.512 10.368-4.512 16.176 0 8.544 3.328 16.576 9.376 22.624l135.76 135.76c6.032 6.032 14.064 9.36 22.608 9.36s16.576-3.328 22.624-9.376S512 488.544 512 480s-3.328-16.576-9.376-22.624l-135.76-135.76c-10.144-10.144-26.544-11.664-38.72-4.784l-34.48-34.48c-.544-.544-1.184-.864-1.824-1.216C319.168 251.248 336 211.6 336 168 336 75.36 260.64 0 168 0zm187.552 332.928l135.76 135.76c3.024 3.024 4.688 7.04 4.688 11.312s-1.664 8.288-4.688 11.312c-6.064 6.032-16.56 6.032-22.624 0l-135.76-135.76c-3.008-3.024-4.688-7.04-4.688-11.312s1.664-8.288 4.688-11.312c3.024-3.008 7.04-4.688 11.312-4.688s8.272 1.664 11.312 4.688zM168 320c-83.808 0-152-68.192-152-152S84.192 16 168 16s152 68.192 152 152-68.192 152-152 152zm0-272c-66.176 0-120 53.824-120 120s53.824 120 120 120 120-53.824 120-120S234.176 48 168 48zm0 224c-57.344 0-104-46.656-104-104S110.656 64 168 64s104 46.656 104 104-46.656 104-104 104z"/></symbol><symbol id="microphone" viewBox="0 0 240 512"><path d="M112 384.112V448H64.544c-18.256 0-32 13.744-32 32v24c0 4.416 3.584 8 8 8h160c4.416 0 8-3.584 8-8v-22.8c0-18.624-14.064-33.2-32-33.2H128v-63.888c63.568-4.448 113.088-56.96 113.088-121.024v-30.192c0-4.72-3.824-8.544-8.544-8.544s-8.544 3.84-8.544 8.56v30.192c0 57.552-46.4 104.352-103.456 104.352S17.088 320.64 17.088 263.104v-30.192c0-4.72-3.824-8.544-8.544-8.544S0 228.192 0 232.912v30.192c0 64.048 49.52 116.56 112 121.008zm80.544 97.088V496h-144v-16c0-9.424 6.576-16 16-16h112c9.12 0 16 7.392 16 17.2zm-72-481.744C80.544-.544 48 32.4 48 72.912v190.192c0 40.496 32.544 73.456 72.544 73.456S193.088 303.6 192 263.104V72.912C193.088 32.4 160.544-.544 120.544-.544zM176 263.088c0 31.072-24.88 56.352-55.456 56.352S64 294.176 64 263.088V72.912C64 41.84 89.968 16.56 120.544 16.56S176 41.824 176 72.912v190.176z"/></symbol><symbol id="nav-down-small" viewBox="0 0 1024 1024"><path d="M789.904 333.472h-78.656L512 612.416 312.768 333.472h-78.672L512 722.544z"/></symbol><symbol id="nav-down" viewBox="0 0 1024 1024"><path d="M682.416 638.096L544 775.808V128h-64v647.792L341.6 638.096l-45.152 45.376L512 897.92l215.552-214.448z"/></symbol><symbol id="nav-left-large" viewBox="0 0 2048 1024"><path d="M2047.984 480.032H122.496L248.88 353.648l-45.248-45.264L-.016 512.032l203.648 203.632 45.248-45.248-126.384-126.384h1925.488z"/></symbol><symbol id="nav-left-small" viewBox="0 0 1024 1024"><path d="M690.512 789.904v-78.64L411.584 512.016l278.928-199.232v-78.672L301.456 512.016z"/></symbol><symbol id="nav-left" viewBox="0 0 1024 1024"><path d="M386.848 683.376l-137.728-138.4h647.824V480.96H249.136l137.712-138.4-45.376-45.152-214.464 215.568 214.464 215.52z"/></symbol><symbol id="nav-right-large" viewBox="0 0 2048 1024"><path d="M0 544h1925.488l-126.4 126.384 45.248 45.264L2048 512l-203.664-203.648-45.248 45.264L1925.488 480H0z"/></symbol><symbol id="nav-right-small" viewBox="0 0 1024 1024"><path d="M333.472 234.112v78.64L612.416 512 333.472 711.232v78.672L722.544 512z"/></symbol><symbol id="nav-right" viewBox="0 0 1024 1024"><path d="M637.104 342.544l137.728 138.4H127.008v64.016h647.808l-137.712 138.4 45.376 45.136 214.464-215.552L682.48 297.408z"/></symbol><symbol id="nav-up-small" viewBox="0 0 1024 1024"><path d="M234.096 690.512h78.656L512 411.584l199.232 278.928h78.672L512 301.456z"/></symbol><symbol id="nav-up" viewBox="0 0 1024 1024"><path d="M341.584 387.824L480 250.112V897.92h64V250.128l138.4 137.696 45.152-45.376L512 128 296.448 342.448z"/></symbol><symbol id="social-dribbble-circle" viewBox="0 0 512 512"><path d="M256-.544C114.528-.544-.544 114.528-.544 256S114.528 512.544 256 512.544 512.544 397.472 512.544 256 397.472-.544 256-.544zm0 496C123.968 495.456 16.544 388.032 16.544 256S123.968 16.544 256 16.544 495.456 123.968 495.456 256 388.032 495.456 256 495.456zm93.616-327.376c-24.608-26.208-57.84-40.624-93.616-40.624-16.8 0-33.2 3.232-48.752 9.632-44.128 18.08-74.448 58.752-79.152 106.096-.4 4.224-.64 8.48-.64 12.816 0 38.848 17.312 75.2 47.536 99.76 22.832 18.56 51.616 28.784 81.008 28.784 18.544 0 36.576-3.968 53.632-11.808 34.816-16.032 60.48-46.416 70.416-83.376v-.016c2.976-11.2 4.496-22.416 4.496-33.344 0-32.736-12.4-63.952-34.928-87.92zm15.76 108.8c-2.832-.608-5.584-.88-8.4-1.376-3.728-.656-7.456-1.344-11.136-1.824-4.368-.56-8.64-.848-12.928-1.136-3.456-.224-6.912-.528-10.304-.576-1.056-.016-2.176-.176-3.232-.176-5.632 0-11.216.272-16.768.752-.72.064-1.424.208-2.144.272-4.48.448-8.944.96-13.328 1.728-.72-1.872-1.536-3.632-2.272-5.488a736.22 736.22 0 0 0-9.216-22.272c-.784-1.792-1.472-3.68-2.256-5.456 1.68-.672 3.184-1.424 4.816-2.128 1.664-.72 3.328-1.424 4.928-2.176a178.157 178.157 0 0 0 10.192-5.184c1.04-.576 2.144-1.104 3.152-1.68 4.16-2.4 8.08-4.912 11.776-7.488.88-.624 1.68-1.264 2.528-1.888 2.784-2.032 5.456-4.08 7.968-6.16a184.244 184.244 0 0 0 3.152-2.72 158.21 158.21 0 0 0 6.24-5.76c.896-.864 1.792-1.728 2.64-2.608 2.24-2.288 4.32-4.576 6.288-6.848.384-.448.832-.896 1.2-1.344a156.95 156.95 0 0 0 5.856-7.376c15.104 19.472 23.328 43.248 23.328 68.032 0 6.832-.704 13.824-2.08 20.88zM256 144.544c28.736 0 55.584 10.752 76.352 30.432-.224.336-.416.64-.656.96-.608.848-1.28 1.712-1.92 2.56a143.89 143.89 0 0 1-3.712 4.72c-.784.944-1.6 1.904-2.432 2.848a144.838 144.838 0 0 1-4.352 4.736c-.912.96-1.84 1.92-2.816 2.88-1.712 1.68-3.568 3.36-5.456 5.024-.944.832-1.824 1.664-2.816 2.496-2.944 2.464-6.048 4.896-9.408 7.248-.208.144-.464.288-.688.448a144.198 144.198 0 0 1-10.048 6.368c-1.296.752-2.72 1.456-4.08 2.192-2.592 1.408-5.248 2.784-8.032 4.08-1.712.8-3.52 1.568-5.312 2.32-1.44.608-2.992 1.168-4.48 1.76-.4-.848-.816-1.584-1.216-2.432-3.344-6.96-6.688-13.712-10-20.048-.256-.496-.512-.944-.768-1.44a642.338 642.338 0 0 0-9.344-17.184c-.704-1.248-1.392-2.496-2.096-3.712a724.214 724.214 0 0 0-8.96-15.28c-.656-1.088-1.264-2.064-1.904-3.104a630.595 630.595 0 0 0-7.44-11.84c-.24-.368-.528-.848-.768-1.216A111.033 111.033 0 0 1 256 144.544zm-48.624 11.2l.288.432a637.3 637.3 0 0 1 8.144 12.8 245.33 245.33 0 0 1 1.84 2.992 566.332 566.332 0 0 1 9.2 15.504c.352.608.704 1.264 1.056 1.872 2.992 5.248 6.064 10.864 9.184 16.72.592 1.12 1.184 2.208 1.792 3.36a659.212 659.212 0 0 1 10.016 19.936c.24.496.48 1.008.72 1.504-5.312 1.488-10.528 3.104-16.192 4.176-.864.16-1.76.272-2.624.432-17.184 3.04-35.936 4.128-56 3.36-1.552-.064-3.056-.064-4.64-.144-7.712-.4-15.776-1.328-23.872-2.288 6.24-35.12 28.88-65.056 61.088-80.656zM144.544 256c0-.768.016-1.552.032-2.32 2.272.272 4.384.288 6.64.512 6.272.64 12.432 1.136 18.496 1.456 3.6.192 7.168.336 10.688.4 2.16.048 4.464.256 6.592.256h.016c4.592 0 9.008-.272 13.456-.48 1.872-.08 3.792-.08 5.632-.192a259.346 259.346 0 0 0 24.08-2.704c2.016-.32 3.92-.768 5.888-1.136a212.04 212.04 0 0 0 17.376-4c1.168-.32 2.448-.48 3.584-.832.816 1.808 1.6 3.648 2.4 5.488a662.172 662.172 0 0 1 8.704 20.864c.672 1.696 1.344 3.408 2.016 5.12-1.728.496-3.328 1.12-5.024 1.664-2.208.688-4.4 1.392-6.528 2.16-3.504 1.248-6.864 2.624-10.192 4.048-1.808.784-3.664 1.504-5.424 2.336-3.984 1.872-7.808 3.888-11.52 5.984-.896.496-1.856.96-2.736 1.472-4.56 2.656-8.88 5.472-13.008 8.368-1.152.8-2.192 1.648-3.312 2.464-2.912 2.144-5.776 4.288-8.464 6.496-1.36 1.12-2.624 2.24-3.936 3.36a221.918 221.918 0 0 0-6.624 5.92c-1.28 1.216-2.528 2.4-3.744 3.616a205.109 205.109 0 0 0-5.568 5.712c-1.136 1.216-2.288 2.416-3.36 3.616-.4.448-.864.912-1.264 1.344-22.256-21.04-34.896-50.112-34.896-80.992zm48.288 91.792c.288-.32.512-.608.8-.928.96-1.072 2.016-2.144 3.024-3.232a172.768 172.768 0 0 1 5.104-5.232 178.62 178.62 0 0 1 3.52-3.36 187.879 187.879 0 0 1 5.808-5.216c1.28-1.104 2.56-2.208 3.888-3.296 2.208-1.808 4.544-3.568 6.896-5.312 1.296-.96 2.544-1.936 3.872-2.864 3.2-2.24 6.56-4.384 10.016-6.464.64-.384 1.216-.8 1.872-1.184a164.97 164.97 0 0 1 12.976-6.768c1.376-.64 2.848-1.184 4.256-1.792 3.248-1.408 6.544-2.768 9.984-3.984 1.824-.64 3.712-1.2 5.6-1.792 1.856-.576 3.808-1.072 5.728-1.6 3.6 10.032 7.12 20.128 10.272 30.464.144.464.304.896.448 1.36 3.312 10.976 6.192 22.16 8.96 33.392-34.208 13.232-73.312 8.384-103.024-12.192zm118.944 4.576c-2.528-10.048-5.312-20.016-8.272-29.872-.112-.384-.208-.784-.32-1.168a683.999 683.999 0 0 0-9.888-30.128c2.32-.368 4.624-.8 6.976-1.072 1.952-.224 3.904-.48 5.872-.624a178.472 178.472 0 0 1 17.376-.48c.656.016 1.296-.048 1.952-.016 6.608.224 13.312.864 20.112 1.792 1.84.256 3.712.64 5.568.944 3.168.528 6.384 1.232 9.584 1.904-8.864 24.8-26.144 45.536-48.96 58.72z"/></symbol><symbol id="social-facebook-circle" viewBox="0 0 512 512"><path d="M256-.544C114.544-.544-.56 114.528-.56 256S114.544 512.544 256 512.544 512.56 397.472 512.56 256 397.456-.544 256-.544zm0 496C123.968 495.456 16.56 388.032 16.56 256S123.968 16.544 256 16.544 495.44 123.968 495.44 256 388.032 495.456 256 495.456zM312 112h-42.688C214.944 111.456 208 145.104 208 181.52V208h-24c-4.72-.544-8.56 3.28-8 8v48c-.56 4.72 3.28 8.544 8 8h24v120c-.496 4.72 3.328 8.544 8.048 8h48.88c4.72.544 8.544-3.28 7.04-8L272 272h40c4.72.544 8.56-3.28 8-8v-48c.56-4.72-3.28-8.544-8-8h-40.048l.048-24c1.552-10.224 1.552-8.56 11.04-8h28.624c2.224-.496 4.592-.224 6.256-1.84 1.664-1.616 2.624-3.824 2.064-6.16v-48c.576-4.72-3.264-8.544-7.984-8zm-8.56 47.104l-20.064-.768c-24.848 0-26.928 13.488-26.928 27.296l-.064 30.336c0 2.272.896 4.448 2.496 6.064a8.548 8.548 0 0 0 6.048 2.496H304v30.912h-39.04c-4.72 0-8.544 3.824-8.56 8.544L256.384 384H224V264c0-4.72-3.216-8.544-7.952-8.544H192v-30.912h24.048a8.548 8.548 0 0 0 6.048-2.496c1.6-1.616 1.888-3.792 1.888-6.064v-34.48c0-35.872 7.248-52.96 45.312-52.96h34.128v30.56z"/></symbol><symbol id="social-github-circle" viewBox="0 0 512 512"><path d="M256-.5C114.5-.5-.5 114.5-.5 256s115 256.5 256.5 256.5 256.5-115 256.5-256.5S397.5-.5 256-.5zm0 496C124 495.5 16.5 388 16.5 256S124 16.5 256 16.5 495.5 124 495.5 256 388 495.5 256 495.5z"/><path d="M316.8 395.3c-.8 0-1.5 0-2.3-.1-18.5 0-90 .1-102.6.1h-2.1c-3.8-.1-6.9-3.3-6.8-7.1.1-3.8 3.2-6.9 7-6.9h1.7c1.8-.1 2.7-.4 3-.5 0-.1.1-.4.1-.7 0-1.8 0-5-.1-9.2 0-3.3-.1-7.3-.1-11.8-22.5 2.8-36.5-4-44.5-10.6-9.2-7.6-12.5-16.4-13.2-18.5-6.3-15.9-14.6-20.7-15.5-21.2-.4-.2-.6-.3-.9-.5-3.2-2.2-11.7-8-9.3-15.7 2.2-6.9 10.9-7.6 14.5-7.5h.4c20.3 1.4 30.9 19.5 31.9 21.3 10.8 18.4 27.2 16.6 37.8 12.8 1-4.7 2.5-9 4.5-12.7-34.1-6.1-72.7-24.4-72.7-90.3 0-18.2 5.7-34.2 16.8-47.7-2.7-8.9-5.2-25.6 3.1-46.6.8-2 2.4-3.5 4.4-4.1 2.9-.9 18.6-4.3 50.7 16.8 13.2-3.4 27.2-5.1 41.8-5.2 14.6.1 28.6 1.8 41.9 5.2 32.2-21 47.8-17.7 50.6-16.8 2 .6 3.6 2.1 4.4 4.1 8.5 21.3 5.6 38.3 3.1 46.7 11.1 13.5 16.7 29.5 16.7 47.7 0 66.1-38.6 84.2-72.8 90.2 3.8 7.3 5.9 16.5 5.9 26.6 0 15.4-.1 28.8-.2 37.7 0 4.4-.1 7.7-.1 9.5 0 .6.1.9.1.9s.3.2 1.1.4h3.5c3.7 0 6.8 2.9 7 6.7.2 3.7-2.6 6.9-6.3 7.3-.7-.4-1.6-.3-2.5-.3zm-95.2-51.6c1.6 0 3.1.5 4.4 1.5 1.6 1.3 2.6 3.3 2.6 5.4 0 7.9.1 14.8.1 20 0 4.2.1 7.4.1 9.3v1.3h71.4v-1.3c0-1.9 0-5.2.1-9.6.1-8.9.2-22.2.2-37.6 0-16.8-6.5-24.2-9.3-26.6-2.1-1.8-3-4.7-2.1-7.4.8-2.7 3.1-4.6 5.9-4.9 35.8-3.9 72.4-16.3 72.4-78 0-16-5.3-30-15.8-41.5-1.8-2-2.3-4.9-1.3-7.4 1.1-2.8 6.2-16.7-.2-36.2-5.4.3-17.8 2.9-38.3 16.8-1.7 1.2-3.8 1.5-5.8.9-13-3.6-26.8-5.5-41.3-5.5-14.4.1-28.3 1.9-41.2 5.5-2 .6-4.1.2-5.8-1-20.5-13.9-33-16.5-38.4-16.8-6.1 18.8-1.8 32.4-.2 36.3 1 2.5.5 5.3-1.3 7.3-10.6 11.5-15.9 25.5-15.9 41.5 0 61.5 36.5 74 72.2 78.2 2.8.3 5.1 2.2 5.9 4.9s0 5.5-2.1 7.4c-2.6 2.2-7.1 7.6-8.6 18.7-.3 2.4-1.9 4.5-4.1 5.4-6.2 2.8-15.8 5.9-26.4 4.9-13.6-1.2-24.8-8.9-32.5-22.1 0-.1-.1-.1-.1-.2s-3.3-5.7-9.1-9.8c4.3 4.5 9.3 11.4 13.4 21.8.1.2.1.4.2.5 0 0 2.3 6.9 9.3 12.5 9.5 7.6 23.2 9.5 40.5 5.8.1.1.6 0 1.1 0zm-6.9 37.2z"/></symbol><symbol id="social-github" viewBox="0 0 512 512"><path d="M256 6.3C114.6 6.3 0 120.9 0 262.4c0 113.1 73.3 209 175.1 242.9 12.8 2.3 17.5-5.5 17.5-12.3 0-6.1-.2-22.2-.3-43.5-71.3 15.3-86.3-34.4-86.3-34.4-11.6-29.6-28.4-37.4-28.4-37.4-23.3-15.9 1.7-15.6 1.7-15.6 25.7 1.8 39.2 26.4 39.2 26.4 22.8 39.1 59.9 27.8 74.5 21.3 2.3-16.6 8.9-27.8 16.3-34.2C152.4 369 92.7 347.1 92.7 249c0-27.9 10-50.8 26.4-68.7-2.6-6.5-11.4-32.5 2.5-67.8 0 0 21.5-6.9 70.4 26.3 20.4-5.7 42.3-8.5 64.1-8.6 21.7.1 43.6 2.9 64.1 8.6 48.9-33.1 70.3-26.3 70.3-26.3 14 35.2 5.2 61.3 2.5 67.8 16.4 17.9 26.3 40.7 26.3 68.7 0 98.3-59.8 120-116.9 126.3 9.2 7.9 17.4 23.5 17.4 47.4 0 34.2-.3 61.8-.3 70.2 0 6.9 4.6 14.8 17.6 12.3C438.7 471.3 512 375.4 512 262.3c0-141.3-114.6-256-256-256z"/></symbol><symbol id="social-google-circle" viewBox="0 0 512 512"><path d="M256-.544C114.528-.544-.544 114.528-.544 256S114.528 512.544 256 512.544 512.544 397.472 512.544 256 397.472-.544 256-.544zm0 496C123.968 495.456 16.544 388.032 16.544 256S123.968 16.544 256 16.544 495.456 123.968 495.456 256 388.032 495.456 256 495.456zm32.544-342.464a8.542 8.542 0 0 0-8.544-8.544h-68.16c-.416 0-.752.176-1.152.24-.912-.032-1.76-.24-2.688-.24-35.6 0-64.544 24.688-64.544 55.04s28.96 55.04 64.544 55.04c4.912 0 9.648-.56 14.256-1.456-1.2 4.656-1.856 10-1.056 15.968.752 5.584 2.976 10.928 5.888 16.128-5.936-1.04-12.048-1.744-18.416-1.744-44.032 0-79.856 26.48-79.856 59.04s35.824 59.04 79.856 59.04c44.048 0 79.872-26.48 79.872-59.04 0-16.736-9.568-31.792-24.752-42.544-.608-1.536-1.52-2.96-2.992-3.952-13.568-9.184-21.168-18.944-22.608-28.992-1.6-11.184 4.992-19.36 5.328-19.776.72-.848 1.216-1.808 1.552-2.8 16.576-9.968 27.488-26.352 27.488-44.928 0-14.736-6.912-28.064-18-37.952H280c4.72.032 8.544-3.808 8.544-8.528zm-79.872 231.456c-34.608 0-62.768-18.832-62.768-41.952s28.16-41.952 62.768-41.952 62.784 18.832 62.784 41.952-28.176 41.952-62.784 41.952zM208 237.456c-26.16 0-47.456-17.024-47.456-37.952S181.84 161.552 208 161.552s47.456 17.024 47.456 37.952S234.16 237.456 208 237.456zM404.992 192h-37.456v-38c0-4.72-3.824-8.544-8.544-8.544S350.448 149.28 352 152v40h-39.008c-4.72-.544-8.544 3.28-8.544 8s3.824 8.544 8.544 8H352v38c0 4.72 2.288 8.544 7.008 8.544s8.544-3.824 8.544-8.544v-38h37.456c4.72.544 8.544-3.28 8.544-8s-3.84-8.544-8.56-8z"/></symbol><symbol id="social-instagram-circle" viewBox="0 0 512 512"><path d="M256.5 138.2c-32.1 0-36.2.1-48.8.7-12.6.6-21.2 2.6-28.7 5.5-7.9 3-15.1 7.6-21 13.7-6.6 6.6-10.6 13.2-13.7 21-2.9 7.5-4.9 16.1-5.5 28.7-.6 12.6-.7 16.6-.7 48.8s.1 36.2.7 48.8c.6 12.6 2.6 21.2 5.5 28.7 3 7.8 7.1 14.4 13.7 21s13.2 10.6 21 13.7c7.5 2.9 16.1 4.9 28.7 5.5 12.6.6 16.6.7 48.8.7s36.2-.1 48.8-.7c12.6-.6 21.2-2.6 28.7-5.5 7.9-3 15.1-7.6 21-13.7 6.6-6.6 10.6-13.2 13.7-21 2.9-7.5 4.9-16.1 5.5-28.7.6-12.6.7-16.6.7-48.8s-.1-36.2-.7-48.8c-.6-12.6-2.6-21.2-5.5-28.7-3-7.9-7.6-15.1-13.7-21-5.9-6-13.1-10.7-21-13.7-7.5-2.9-16.1-4.9-28.7-5.5-12.6-.6-16.6-.7-48.8-.7zm0 21.3c31.6 0 35.3.1 47.8.7 11.5.5 17.8 2.5 22 4.1 5.5 2.1 9.5 4.7 13.6 8.8s6.7 8.1 8.8 13.6c1.6 4.2 3.5 10.4 4.1 22 .6 12.5.7 16.2.7 47.8s-.1 35.3-.7 47.8c-.6 11.5-2.5 17.8-4.1 22-2.2 5.5-4.7 9.5-8.9 13.6s-8.1 6.7-13.6 8.8c-4.1 1.6-10.5 3.5-22 4.1-12.6.6-16.3.7-47.9.7s-35.3-.1-47.9-.7c-11.5-.6-17.9-2.5-22-4.1-5.1-1.9-9.8-4.9-13.6-8.9-4.1-4.1-6.8-8.1-8.9-13.6-1.6-4.1-3.5-10.5-4.1-22-.4-12.4-.6-16.3-.6-47.8s.1-35.3.6-47.9c.6-11.5 2.5-17.9 4.1-22 2.1-5.6 4.7-9.5 8.9-13.6 4.1-4.1 8-6.8 13.6-8.9 4.1-1.6 10.4-3.5 21.9-4.1 12.6-.4 16.3-.6 47.9-.6l.3.2zm0 36.3c-33.6-.5-61.2 26.3-61.7 59.8s26.3 61.2 59.8 61.7h1.9c33.6-.5 60.3-28.1 59.8-61.7-.5-32.8-26.9-59.3-59.8-59.8zm0 100.2c-21.8 0-39.4-17.7-39.4-39.4s17.7-39.4 39.4-39.4 39.4 17.7 39.4 39.4-17.6 39.4-39.4 39.4zm77.4-102.6c0 7.8-6.4 14.2-14.2 14.2-7.8 0-14.2-6.4-14.2-14.2s6.4-14.2 14.2-14.2c7.8 0 14.2 6.3 14.2 14.2z"/><path d="M256.5 0C115.1 0 0 115.1 0 256.5S115.1 513 256.5 513s256.6-115 256.6-256.5S398 0 256.5 0zm0 496C124.5 496 17 388.6 17 256.5S124.5 17.1 256.5 17.1 496 124.5 496 256.5 388.6 496 256.5 496z"/></symbol><symbol id="social-instagram" viewBox="0 0 512 512"><path d="M256 0c-69.5 0-78.2.3-105.5 1.5-27.3 1.3-45.8 5.6-62.1 11.9C71.2 19.9 55.8 29.9 43 43 28.8 57.2 20 71.5 13.5 88.3c-6.3 16.3-10.7 34.9-11.9 62.1C.3 177.8 0 186.5 0 256s.3 78.2 1.5 105.5c1.3 27.3 5.6 45.9 11.9 62.1C20 440.5 28.7 454.8 43 469c14.2 14.2 28.5 23 45.3 29.5 16.3 6.3 34.9 10.7 62.1 11.9 27.3 1.3 36 1.5 105.5 1.5s78.2-.3 105.5-1.5c27.3-1.3 45.9-5.6 62.1-11.9 17.1-6.4 32.6-16.5 45.3-29.5 14.2-14.2 23-28.5 29.5-45.3 6.3-16.3 10.7-34.9 11.9-62.1 1.3-27.3 1.5-36 1.5-105.5s-.3-78.2-1.5-105.5c-1.3-27.3-5.6-45.9-11.9-62.1-6.2-17.3-16.2-32.7-29.3-45.5-12.8-13.1-28.2-23.1-45.3-29.5-16.3-6.3-34.9-10.7-62.1-11.9C334.2.3 325.5 0 256 0zm0 46.1c68.4 0 76.5.3 103.5 1.5 25 1.2 38.5 5.3 47.5 8.8 12 4.6 20.5 10.2 29.4 19.1s14.5 17.5 19.1 29.4c3.5 9 7.7 22.6 8.8 47.5 1.2 27 1.5 35.1 1.5 103.5s-.3 76.5-1.6 103.5c-1.3 25-5.4 38.5-9 47.5-4.8 12-10.2 20.5-19.2 29.4-9 9-17.6 14.5-29.4 19.1-9 3.5-22.7 7.7-47.7 8.8-27.2 1.2-35.2 1.5-103.7 1.5s-76.5-.3-103.7-1.6c-25-1.3-38.7-5.4-47.7-9-11.1-4.1-21.2-10.7-29.4-19.2-9-9-14.7-17.6-19.2-29.4-3.5-9-7.7-22.7-9-47.7-1-26.9-1.3-35.2-1.3-103.4s.3-76.5 1.3-103.7c1.3-25 5.4-38.7 9-47.7 4.5-12.2 10.2-20.5 19.2-29.4s17.4-14.5 29.6-19c9-3.5 22.4-7.7 47.4-9 27.2-1 35.2-1.3 103.7-1.3l.9.8zm0 78.4c-72.6-1.1-132.4 56.8-133.5 129.4s56.8 132.4 129.4 133.5h4.1c72.6-1.1 130.5-60.9 129.4-133.5-1.1-71-58.4-128.2-129.4-129.4zm0 216.8c-47.1 0-85.3-38.2-85.3-85.3s38.2-85.3 85.3-85.3 85.3 38.2 85.3 85.3-38.2 85.3-85.3 85.3zm167.4-221.9c0 17-13.8 30.7-30.7 30.7S362 136.3 362 119.4s13.8-30.7 30.7-30.7 30.7 13.7 30.7 30.7z"/></symbol><symbol id="social-linkedin-circle" viewBox="0 0 512 512"><path d="M312.24 191.232c-10.848 0-18.88 2.736-25.168 6.192-1.008-3.584-4.32-6.208-8.224-5.424h-47.744c-4.72-.784-8.544 3.04-7.088 8v176c-1.456 4.48 2.368 8.32 7.088 8h47.744c4.72.32 8.544-3.52 8.544-8.24l-.016-106.368c-.016-.048-.192-5.136 3.024-8.64 2.576-2.784 7.008-4.208 13.136-4.208 10.208 0 14.752 4.176 16.448 13.52V375.76c-1.68 4.72 2.144 8.56 6.864 8.24h50.32c4.72.32 8.544-3.52 6.848-8.24V266.512c1.68-55.552-37.888-75.28-71.776-75.28zM368.608 368h-33.216v-97.936c0-18.896-12.208-30.608-31.84-30.608-11.104 0-19.744 3.264-25.696 9.696-8.272 8.96-7.632 20.32-5.856 22.848v96h-32.352V208.32h30.656v5.376c0 3.248 1.84 6.24 4.768 7.664a8.625 8.625 0 0 0 8.992-.896l2.24-1.728c6.48-5.104 13.184-10.4 25.952-10.4 13.216 0 56.368 4.208 56.368 58.192V368zM176 111.456c-17.952 0-32.544 14.592-32.544 32.544s14.592 32.544 32.544 32.544 32.544-14.592 32.544-32.544-14.592-32.544-32.544-32.544zm0 48c-8.512 0-15.456-6.944-15.456-15.456s6.944-15.456 15.456-15.456 15.456 6.944 15.456 15.456-6.944 15.456-15.456 15.456zm22.848 31.76H151.36c-4.72 0-8.544 3.824-7.36 8.784v176c-1.184 4.48 2.64 8.32 7.36 8h47.488c4.72.32 8.544-3.52 8.544-8.24v-176a8.542 8.542 0 0 0-8.544-8.544zM192 368h-32.096V208.32H192V368zM256-.544C114.528-.544-.544 114.528-.544 256S114.528 512.544 256 512.544 512.544 397.472 512.544 256 397.472-.544 256-.544zm0 496C123.968 495.456 16.544 388.032 16.544 256S123.968 16.544 256 16.544 495.456 123.968 495.456 256 388.032 495.456 256 495.456z"/></symbol><symbol id="social-pinterest-circle" viewBox="0 0 512 512"><path d="M183.7 419.3l-1.9-13.3c-6.7-47.2 3.6-85.4 13.5-122.2 3.3-12.1 6.3-23.7 8.8-35.4-10.4-20.9-6.8-52.3 8.7-70.5 10.8-12.6 25.6-16.5 40.7-10.5 8.8 3.5 19.3 11.6 18.7 30.6-.3 11.5-4.5 24.7-8.6 37.4-5.1 16.1-10.9 34.4-5.9 42.9 1.9 3.2 5.7 5.4 11.5 6.6 11.3 2.3 27.5-.1 40.6-24.4 17.3-32 16.2-80.1-2.3-98.9-10.7-10.8-24.3-17.3-39.5-18.8-14.1-1.3-29.4 1.7-43.1 8.7-23.4 11.9-48.6 39.2-42.4 77.3.8 4.8 3 8.5 5.7 12.9 5.7 9.4 12.7 21 1 41.8l-2.9 5.2-5.8-1.3c-18.1-4-31.2-13.4-39.2-27.9-6.8-12.4-9.7-28.3-9-48.7 1-28.6 13.5-55.7 35.1-76.2 19.7-18.7 46.2-31.2 72.8-34.1 33.1-3.7 65.1 2.4 90 17.3 26.9 16 44 41.3 48.1 71.4 5.9 43.1-6.5 86.9-32.4 114.4-19.1 20.3-43.8 29.9-71.3 27.8-15.5-1.2-24.4-7.2-33.7-13.7-7.9 38.5-18.6 73.7-46.5 93.9l-10.7 7.7zm56-238.5c-5.4 0-10.3 2.5-14.6 7.6-11.7 13.8-14.4 39.8-5.6 54.7l1.6 2.7-.6 3c-2.7 13.3-6.2 26.5-9.7 39.2-8.3 31-16.9 63-14.7 100.1 17.6-20.4 24.9-52 31.3-85.4l2.2-11.4 9.9 6c3.7 2.3 6.9 4.5 10 6.6 8.6 6 14.9 10.3 26.3 11.2 22.4 1.7 42.6-6.1 58.3-22.8 22.3-23.7 33.4-63.4 28.2-101.1-3.5-25.5-17.5-46.1-40.4-59.7-22-13.1-50.4-18.4-80-15.1-23.1 2.6-46.3 13.5-63.5 29.8-13.1 12.5-29 33.9-30.1 65.1-1.2 33 7.9 51.4 29.5 58.6 3.4-8.6.8-12.9-3.5-19.9-3.1-5.1-6.5-10.8-7.8-18.7-3.2-19.8.5-39.5 10.6-56.8 9.1-15.6 23.5-28.9 40.4-37.4 35.8-18.2 75.6-13 101.4 13.2 26.2 26.6 23.6 83.4 5 117.9-13.7 25.3-34.8 37.2-58 32.6-10.5-2.1-17.9-6.9-22.2-14.2-8.7-14.7-2-35.7 4.4-56 11.6-36.6 9.3-44.1-.7-48.1-2.5-1.2-5.1-1.7-7.7-1.7z"/><path d="M256 0C114.8 0 0 114.8 0 256s114.8 256 256 256 256-114.8 256-256S397.2 0 256 0zm0 494.9C124.2 494.9 17.1 387.8 17.1 256S124.2 17.1 256 17.1 494.9 124.2 494.9 256 387.8 494.9 256 494.9z"/></symbol><symbol id="social-pinterest" viewBox="0 0 512 512"><path d="M180.2 500.2c24.3 7.4 49.3 11.8 75.8 11.8 141.2 0 256-114.8 256-256S397.2 0 256 0 0 114.8 0 256c0 108.9 68.4 202.3 164.8 239.1-2.2-19.9-4.4-53 0-75.8l29.4-126.5s-7.4-14.7-7.4-38.3c0-35.3 22.1-61.8 47.1-61.8 22.1 0 32.4 16.2 32.4 36.8 0 22.1-14.7 53.7-22.1 83.9-4.4 25 13.2 47.1 39 47.1 45.6 0 80.9-48.6 80.9-117.7 0-61.1-44.1-103-107.4-103-72.1 0-114.8 53.7-114.8 110.3 0 22.1 7.4 44.1 19.1 58.9 2.2 1.5 2.2 3.7 1.5 7.4l-7.4 28c0 4.4-2.9 5.9-7.4 2.9-32.4-14.7-51.5-61.1-51.5-98.6 0-80.9 57.4-154.5 167.7-154.5 88.3 0 156.7 63.3 156.7 147.1 0 88.3-54.4 158.9-132.4 158.9-25 0-49.3-13.2-57.4-29.4l-17.7 61.1C207.2 454 191 483.4 180 501v-.8z"/></symbol><symbol id="social-rss-circle" viewBox="0 0 512 512"><path d="M256-.544C114.528-.544-.544 114.528-.544 256S114.528 512.544 256 512.544 512.544 397.472 512.544 256 397.472-.544 256-.544zm0 496C123.968 495.456 16.544 388.032 16.544 256S123.968 16.544 256 16.544 495.456 123.968 495.456 256 388.032 495.456 256 495.456zm-87.968-272.24c-4.72 0-8.544 3.824-8.544 8.544s3.824 8.544 8.544 8.544c36.048 0 66.24 11.152 87.264 32.256 21.04 21.088 32.16 51.328 32.16 87.44 0 4.72 3.824 8.544 8.544 8.544s8.544-3.824 8.544-8.544c.016-40.736-12.832-75.136-37.12-99.52-24.336-24.368-58.688-37.264-99.392-37.264zm.048-78.784c-4.72 0-8.544 3.824-8.544 8.544s3.824 8.544 8.544 8.544c114.24 0 200.368 85.328 200.368 198.464 0 4.72 3.824 8.544 8.544 8.544s8.544-3.824 8.544-8.544c.016-122.88-93.472-215.552-217.456-215.552zm23.904 157.68c-17.936 0-32.528 14.608-32.528 32.56 0 17.936 14.592 32.528 32.528 32.528 17.952 0 32.56-14.592 32.56-32.544-.016-17.952-14.624-32.544-32.56-32.544zm0 48c-8.512 0-15.44-6.928-15.44-15.44 0-8.528 6.928-15.472 15.44-15.472s15.456 6.96 15.472 15.472c0 8.512-6.944 15.44-15.472 15.44z"/></symbol><symbol id="social-soundcloud-circle" viewBox="0 0 512 512"><path class="st0" d="M379.8 335.1c-1.2 0-118.6 0-119.1-.1h-.2c-5.7-.5-10-5.2-10-10.8V192.7c.1-6.7 4.6-9.2 8-10.5 9.3-3.5 19.5-5.3 29.5-5.3 20.5 0 40.1 7.4 55.1 20.8 13.1 11.7 21.9 27.1 25.1 43.9 3.8-.9 7.7-1.4 11.6-1.4 26.9 0 48.8 21.3 48.8 47.4 0 26.2-21.9 47.5-48.8 47.5zM262.5 323c13 0 116.3.1 117.3.1 20.3 0 36.8-15.9 36.8-35.4s-16.5-35.4-36.8-35.4c-4.9 0-9.7.9-14.3 2.8l-7.5 3-.7-8c-1.5-16.6-9.4-32-22.1-43.4-12.9-11.5-29.6-17.8-47.2-17.8-8.6 0-17.3 1.6-25.3 4.6-.1 0-.2.1-.2.1V323zm-31 12c-6.5 0-11.7-4.3-11.9-9.9-2.2-34.4-2.2-34.4-2.2-34.7v-.2l2.2-85.5c.1-5.7 5.4-10.1 11.9-10.1 6.6 0 11.8 4.4 11.9 10.1l2.5 85.8-2.5 34.5c-.3 5.7-5.5 10-11.9 10zm-.1-12s.1 0 0 0l2.5-32.7-2.4-83-2.2 83c.1 2.4 1.4 21.4 2.1 32.7zm0-117.9zm.1-.1zm-33.3 129.9c-6.1 0-11-4.1-11.3-9.3l-2.8-35v-.4l2.8-74.6c.2-5.4 5.1-9.5 11.3-9.5 6.2 0 11.1 4.1 11.3 9.5l3.2 75-3.2 35.1c-.3 5.2-5.1 9.2-11.3 9.2zm-2.1-44.6l2.2 26.7 2.4-26.7-2.4-57.4-2.2 57.4zm1.4-74.2zm1.4-.1zm-34 118.8c-5.8 0-10.3-3.7-10.7-8.6l-3.5-35.7 3.4-74.5c.3-5 4.8-8.8 10.7-8.8 5.8 0 10.4 3.8 10.7 8.7l3.9 74.6-3.9 35.7c-.3 5-4.9 8.6-10.6 8.6zm-2.1-44.6l2.2 22.3 2.4-22.3-2.4-46.6-2.2 46.6zm-31.2 44.6c-5.3 0-9.5-3.4-9.9-7.9l-4.1-36.4 4.1-56.2c.3-4.6 4.6-8.1 9.9-8.1 5.2 0 9.5 3.4 9.9 8l4.7 56.3-4.7 36.5c-.4 4.5-4.7 7.8-9.9 7.8zm-2-44.5l2.1 18.8 2.4-18.8-2.4-29.1-2.1 29.1zm-31.2 30.4c-4.8 0-8.3-2.4-9.1-6.1l-5-24.4 5-25.2c.7-3.7 4.3-6.1 9.1-6.1 4.7 0 8.3 2.4 9.1 6l5.7 25.3-5.8 24.6c-.8 3.6-4.3 5.9-9 5.9zm-1.9-30.6l2 9.8 2.3-9.8-2.3-10.1-2 10.1zm-.8-22.7v.2-.2z"/><path d="M256.5 0C115.3 0 .5 114.8.5 256s114.8 256 256 256 256-114.8 256-256S397.7 0 256.5 0zm0 494.9C124.7 494.9 17.6 387.8 17.6 256S124.7 17.1 256.5 17.1 495.4 124.2 495.4 256 388.3 494.9 256.5 494.9z"/></symbol><symbol id="social-soundcloud" viewBox="0 0 512 512"><path class="st0" d="M17.2 344.5l8.4-35.9-8.4-37.1c-.2-1.1-2.3-1.9-4.9-1.9-2.6 0-4.7.8-4.9 2l-7.4 37 7.4 35.9c.2 1.1 2.3 2 4.9 2 2.6-.1 4.7-.9 4.9-2zm52.5 19.9l7.1-55.4-7.1-85.7c-.2-2.2-2.9-3.9-6.1-3.9-3.3 0-5.9 1.7-6.1 3.9L51.2 309l6.3 55.4c.2 2.2 2.8 3.9 6.1 3.9 3.2 0 5.9-1.7 6.1-3.9zm52.4-.9L128 309l-5.9-114.1c-.2-2.7-3.3-4.8-7.2-4.8-3.9 0-7.1 2.1-7.2 4.8L102.4 309l5.3 54.5c.1 2.7 3.3 4.8 7.2 4.8 3.8-.1 7-2.1 7.2-4.8zm52.2-.8l4.9-53.6-4.9-114.9c-.1-3.2-3.7-5.7-8.2-5.7-4.5 0-8.1 2.5-8.2 5.7L153.6 309l4.4 53.6c.1 3.1 3.7 5.6 8.2 5.6 4.4.1 8-2.4 8.1-5.5zm52.2-.7l3.9-52.9-3.9-131.8c-.1-3.6-4.2-6.6-9.1-6.6-5 0-9.1 2.9-9.1 6.6L204.8 309c0 .1 3.5 53 3.5 53 .1 3.6 4.2 6.5 9.1 6.5 5 0 9.1-2.9 9.1-6.5zm36.6 6.5l182.9.1c36.4 0 66-28.6 66-63.8 0-35.3-29.5-63.8-66-63.8-9 0-17.7 1.8-25.5 5-5.2-57.5-55.1-102.6-115.9-102.6-14.9 0-29.4 2.8-42.2 7.6-5 1.9-6.3 3.8-6.3 7.5V361c0 3.9 3.1 7.2 7 7.5z"/></symbol><symbol id="social-tumblr-circle" viewBox="0 0 512 512"><path d="M256-.544C114.528-.544-.544 114.528-.544 256S114.528 512.544 256 512.544 512.544 397.472 512.544 256 397.472-.544 256-.544zm0 496C123.968 495.456 16.544 388.032 16.544 256S123.968 16.544 256 16.544 495.456 123.968 495.456 256 388.032 495.456 256 495.456zM327.968 192H272v-56.016c.528-4.72-3.296-8.544-8.016-8.544H222.72c-4.32 0-7.952 3.2-8.48 7.504-1.52 12.208-4.256 22.224-8.112 29.808a62.07 62.07 0 0 1-15.2 19.344c-5.136 4.368-13.968 8.672-25.52 12.4-3.536 1.136-5.92 4.432-5.408 8.144v43.344c-.512 4.72 3.312 8.544 8.032 8.016L192 272v74.688c-.544-4.816.592-1.552 2.816 3.696l.944 2.272c.08.208 8.192 20.368 17.952 28.784 7.2 6.176 15.92 10.976 25.92 14.272 9.36 3.056 17.296 4.832 30.256 4.832 10.912 0 21.232-1.104 30.72-3.312 10.896-2.544 20.752-5.984 31.008-10.832 3.008-1.408 4.912-4.416 4.384-7.728v-38.48c.512-3.136-1.2-6.032-3.968-7.536s-6.128-1.344-8.768.384c-11.28 7.408-17.328 8.736-28.736 8.736-5.312 0-9.92-1.088-14.096-3.376-1.68-3.056-4.112-12.448-5.04-16.144-.832-3.184-1.536-5.792-2.016-7.088-.88-2.336-.88-10.688-.864-20.352l.016-38.816h55.44c4.72.528 8.544-3.296 8.032-8.016v-48c.512-4.72-3.312-8.544-8.032-7.984zm-8.544 48h-55.44c-4.72-.56-8.544 3.264-7.984 7.984l-.032 46.784c-.576 13.648-.576 21.152 1.392 26.4.368.976.848 2.944 1.472 5.344 4.064 15.824 6.624 22.944 11.888 26.032 7.008 4.192 15.008 6.32 23.808 6.32 9.168 0 16.528-.8 24.896-4.304v18.56c-7.44 3.184-14.784 5.584-22.72 7.44-8.208 1.904-17.216 2.88-26.832 2.88-10.784 0-16.864-1.344-24.928-3.984-7.84-2.592-14.624-6.304-20.112-11.008-4.352-3.744-10.464-15.264-13.2-22.128l-1.056-2.576c-1.52-3.6-2.032-4.816-2.576-13.056v-82.704c.544-4.72-3.28-8.544-8-8.544h-23.424v-28.704c11.008-4.016 19.536-8.592 25.424-13.632 8.064-6.848 14.576-15.12 19.376-24.608 3.888-7.664 6.816-17.024 8.72-27.968h25.344v55.456c0 4.72 3.824 8.544 8.544 8.016h55.44v32z"/></symbol><symbol id="social-twitter-bird-circle" viewBox="0 0 512 512"><path d="M256-.544C114.544-.544-.56 114.528-.56 256S114.544 512.544 256 512.544 512.56 397.472 512.56 256 397.456-.544 256-.544zm0 496C123.968 495.456 16.56 388.032 16.56 256S123.968 16.544 256 16.544 495.44 123.968 495.44 256 388.032 495.456 256 495.456zm140.704-318.72a59.666 59.666 0 0 0 4.368-10.288 8.56 8.56 0 0 0-2.816-9.296c-2.768-2.208-6.64-2.464-9.68-.672-8.208 4.88-17.04 8.48-26.336 10.768-11.168-10.096-25.84-15.792-40.992-15.792-33.68 0-61.072 27.392-61.072 61.04 0 .848.016 1.68.048 2.528-35.76-4.464-68.768-22.64-91.76-50.848-1.76-2.176-4.48-3.312-7.296-3.12a8.513 8.513 0 0 0-6.72 4.24A61.013 61.013 0 0 0 146.176 196a61.039 61.039 0 0 0 7.216 28.832 10.048 10.048 0 0 0-3.424 1.248c-2.608 1.552-4.224 4.672-4.224 7.696 0 18.16 8.08 34.832 21.104 46.16-.192.176-.368.368-.56.56a8.55 8.55 0 0 0-1.728 8.288 61.057 61.057 0 0 0 34.944 37.84c-16.656 8.24-36 11.456-54.496 9.264-3.904-.352-7.696 1.856-9.056 5.632a8.57 8.57 0 0 0 3.44 10.08c25.472 16.32 54.896 24.944 85.104 24.944 98.88 0 157.984-80.32 157.984-157.968 0-.88 0-1.744-.016-2.624a113.945 113.945 0 0 0 24.656-26.56 8.557 8.557 0 0 0-.56-10.256c-2.416-2.864-6.4-3.856-9.856-2.4zm-27.92 28.08a8.567 8.567 0 0 0-3.552 7.376c.096 2.112.144 4.256.144 6.368 0 69.248-52.688 140.88-140.864 140.88a140.17 140.17 0 0 1-46.192-7.808c17.68-3.376 34.256-10.912 48.72-22.24a8.56 8.56 0 0 0 2.832-9.456 8.554 8.554 0 0 0-7.952-5.824c-14.256-.288-27.184-7.376-35.104-18.592a61.345 61.345 0 0 0 11.872-1.984c3.824-1.04 6.416-4.576 6.288-8.544-.128-3.952-2.976-7.312-6.864-8.096-16.048-3.216-28.64-15.088-33.296-30.48a61.588 61.588 0 0 0 12.992 1.84c3.76-.016 7.248-2.32 8.416-5.936s-.208-7.6-3.392-9.712c-12.24-8.192-19.552-21.856-19.552-36.592 0-3.568.432-7.088 1.264-10.528 27.696 28.4 65.28 45.552 105.088 47.552 2.816.016 5.28-.992 6.992-3.056s2.368-4.8 1.76-7.424a44.544 44.544 0 0 1-1.136-10.032c0-24.24 19.728-43.952 43.968-43.952 12.112 0 23.808 5.056 32.08 13.888 2.016 2.16 4.992 3.104 7.904 2.544a115.82 115.82 0 0 0 7.824-1.84 40.609 40.609 0 0 1-3.616 2.416c-3.456 2.064-4.992 6.288-3.696 10.096s5.184 6.304 9.104 5.712c.976-.112 1.936-.24 2.912-.368a89.683 89.683 0 0 1-4.944 3.792z"/></symbol><symbol id="social-twitter" viewBox="0 0 512 512"><path d="M512 97.2c-18.8 8.4-39.1 14-60.3 16.5 21.7-13 38.4-33.6 46.2-58.1-20.3 12-42.8 20.8-66.7 25.5-19.1-20.4-46.5-33.2-76.7-33.2-58 0-105.1 47-105.1 105.1 0 8.2.9 16.3 2.7 23.9-87.3-4.3-164.7-46.2-216.6-109.7-9 15.5-14.2 33.5-14.2 52.8 0 36.4 18.5 68.6 46.7 87.4-17.3-.5-33.4-5.3-47.6-13.1v1.3c0 50.9 36.2 93.4 84.3 103-8.8 2.4-18.1 3.7-27.7 3.7-6.8 0-13.4-.7-19.8-1.9 13.4 41.7 52.2 72.1 98.1 73-35.9 28.2-81.2 45-130.5 45-8.5 0-16.8-.5-25.1-1.5 46.5 29.8 101.7 47.2 161.1 47.2C354.3 464.1 460 304 460 165.2c0-4.6-.1-9.1-.3-13.6 20.4-14.8 38.2-33.3 52.3-54.4z"/></symbol><symbol id="social-youtube-circle" viewBox="0 0 512 512"><path d="M256 369c-13.9 0-28-.6-42.1-1.8l-62.5-5.4c-25.6-2.1-45.7-23.9-45.5-49.7V200c-.1-25.7 19.9-47.5 45.6-49.6l62.4-5.5c28-2.4 56.3-2.4 84.3 0l62.4 5.5c25.7 2.1 45.7 23.9 45.6 49.7v112.1c.1 25.7-19.8 47.5-45.5 49.6l-62.4 5.4c-13.9 1.1-28.1 1.8-42.3 1.8zm0-208.9c-13.6 0-27.2.6-40.7 1.8l-62.4 5.5c-16.9 1.4-30.1 15.7-30 32.6v112.2c-.1 17 13.1 31.3 29.9 32.7l62.5 5.4c13.6 1.2 27.3 1.8 40.7 1.8 13.7 0 27.3-.6 40.7-1.8l62.5-5.4c16.9-1.4 30-15.7 29.9-32.6V200c.1-17-13.1-31.3-29.9-32.7h-.1l-62.4-5.5c-13.5-1.2-27.1-1.7-40.7-1.7z"/><path d="M226.5 323.5c-7.9 0-14.4-6.5-14.4-14.4V202.9c0-2.8.8-5.5 2.3-7.8 2.1-3.2 5.3-5.5 9.1-6.3 3.8-.8 7.6-.1 10.8 2l69.5 44.7 13.1 8.4c1.7 1.1 3.2 2.6 4.3 4.3 2.1 3.2 2.8 7.1 2 10.8-.4 2-1.2 3.8-2.4 5.4v2.2l-1.2-.8c-.8.9-1.7 1.6-2.7 2.3l-82.6 53.1c-2.3 1.5-5 2.3-7.8 2.3zm-1.4-16.6zm4-99.2v96.7l75.2-48.3-75.2-48.4zm-4-2.6z"/><path d="M256.5-1C115.1-1 0 114.1 0 255.5S115.1 512 256.5 512s256.6-115 256.6-256.5S398-1 256.5-1zm0 496C124.5 495 17 387.6 17 255.5S124.5 16.1 256.5 16.1 496 123.5 496 255.5 388.6 495 256.5 495z"/></symbol><symbol id="social-youtube" viewBox="0 0 512 512"><path d="M443.7 80.3l-112.9-9.9c-49.8-4.3-99.9-4.3-149.7 0L68.3 80.3C29.6 83.5-.2 115.9 0 154.7v202.7c-.2 38.8 29.6 71.3 68.3 74.4l112.9 9.8c24.8 2.1 49.8 3.2 74.9 3.2 25 0 50-1.1 74.9-3.2l112.9-9.8c38.7-3.2 68.3-35.6 68.1-74.4V154.7c.2-38.8-29.6-71.2-68.3-74.4z"/><path class="st0" d="M357.8 247.1l-149.3-96c-5-3.2-11.6-1.8-14.7 3.2-1.1 1.7-1.7 3.7-1.7 5.8v192c0 5.9 4.8 10.7 10.7 10.7 2 0 4.1-.6 5.8-1.7l149.3-96c5-3.2 6.4-9.8 3.2-14.7-.9-1.4-2-2.5-3.3-3.3z"/></symbol><symbol id="video" viewBox="0 0 592 512"><path d="M120 0H24C10.096 0 0 10.096 0 24v464c0 13.904 10.096 24 24 24h544c13.904 0 24-10.096 24-24V24c0-13.904-10.096-24-24-24H120zM16 488V24c0-5.008 2.992-8 8-8h88v480H24c-5.008 0-8-2.992-8-8zm112 8V16h336v480H128zM576 24v464c0 5.008-2.992 8-8 8h-88V16h88c5.008 0 8 2.992 8 8zM236.432 161.344a8.03 8.03 0 0 0-8.224-.4A8.026 8.026 0 0 0 224 168v192a8.01 8.01 0 0 0 4.224 7.056A8.101 8.101 0 0 0 232 368a7.961 7.961 0 0 0 4.432-1.344l144-96c2.224-1.488 3.568-3.984 3.568-6.656s-1.344-5.168-3.568-6.656l-144-96zM240 345.056V182.944L361.584 264 240 345.056zM80 128H48c-4.416 0-8 3.584-8 8s3.584 8 8 8h32c4.416 0 8-3.584 8-8s-3.584-8-8-8zM48 80h32c4.416 0 8-3.584 8-8s-3.584-8-8-8H48c-4.416 0-8 3.584-8 8s3.584 8 8 8zm32 112H48c-4.416 0-8 3.584-8 8s3.584 8 8 8h32c4.416 0 8-3.584 8-8s-3.584-8-8-8zm0 64H48c-4.416 0-8 3.584-8 8s3.584 8 8 8h32c4.416 0 8-3.584 8-8s-3.584-8-8-8zm0 64H48c-4.416 0-8 3.584-8 8s3.584 8 8 8h32c4.416 0 8-3.584 8-8s-3.584-8-8-8zm0 64H48c-4.416 0-8 3.584-8 8s3.584 8 8 8h32c4.416 0 8-3.584 8-8s-3.584-8-8-8zm0 64H48c-4.416 0-8 3.584-8 8s3.584 8 8 8h32c4.416 0 8-3.584 8-8s-3.584-8-8-8zm432-304h32c4.416 0 8-3.584 8-8s-3.584-8-8-8h-32c-4.416 0-8 3.584-8 8s3.584 8 8 8zm0-64h32c4.416 0 8-3.584 8-8s-3.584-8-8-8h-32c-4.416 0-8 3.584-8 8s3.584 8 8 8zm0 128h32c4.416 0 8-3.584 8-8s-3.584-8-8-8h-32c-4.416 0-8 3.584-8 8s3.584 8 8 8zm0 64h32c4.416 0 8-3.584 8-8s-3.584-8-8-8h-32c-4.416 0-8 3.584-8 8s3.584 8 8 8zm0 64h32c4.416 0 8-3.584 8-8s-3.584-8-8-8h-32c-4.416 0-8 3.584-8 8s3.584 8 8 8zm0 64h32c4.416 0 8-3.584 8-8s-3.584-8-8-8h-32c-4.416 0-8 3.584-8 8s3.584 8 8 8zm32 48h-32c-4.416 0-8 3.584-8 8s3.584 8 8 8h32c4.416 0 8-3.584 8-8s-3.584-8-8-8z"/></symbol><symbol id="warning" viewBox="0 0 560 512"><path d="M348.784 47.264C331.104 16.8 307.04 0 281.024 0c-26.016 0-50.096 16.8-67.776 47.264L16.944 385.392c-17.92 31.152-19.84 63.504-5.28 88.736 13.856 24 41.04 37.808 74.624 37.872H475.76c33.632-.064 60.864-13.824 74.672-37.776 14.48-25.072 12.528-57.296-5.36-88.4L348.784 47.264zm187.808 418.96c-10.896 18.88-33.072 29.728-60.864 29.776H86.304c-27.696-.048-49.84-10.944-60.784-29.872-11.632-20.16-9.696-46.672 5.28-72.736L227.088 55.296C241.792 29.952 260.944 16 281.024 16s39.232 13.952 53.92 39.296l196.288 338.512c14.96 26.016 16.912 52.416 5.36 72.416zM281.024 320c4.416 0 8-3.584 8-8V152c0-4.416-3.584-8-8-8s-8 3.584-8 8v160c0 4.416 3.584 8 8 8zM280 360c-17.648 0-32 14.352-32 32s14.352 32 32 32 32-14.352 32-32-14.352-32-32-32zm0 48c-8.816 0-16-7.168-16-16s7.184-16 16-16 16 7.168 16 16-7.184 16-16 16z"/></symbol><symbol id="world" viewBox="0 0 512 512"><path d="M.544 266.688C6.208 402.864 118.448 512 256 512s249.792-109.136 255.456-245.312c.304-.848.544-1.728.544-2.688 0-.576-.208-1.072-.32-1.6.048-2.144.32-4.24.32-6.4C512 114.848 397.152 0 256 0S0 114.848 0 256c0 2.16.272 4.256.32 6.4-.112.528-.32 1.024-.32 1.6 0 .96.24 1.84.544 2.688zm398.192 97.184c-21.104-8.832-43.76-15.664-67.44-20.336 2.528-23.248 4.016-47.392 4.48-71.52h79.68c-1.456 32.864-7.296 63.888-16.72 91.856zM431.44 272h63.744c-2.976 44.896-18.208 86.448-42.608 121.264-12.144-8.528-25.232-16.304-39.312-23.04 10.32-29.904 16.672-63.088 18.176-98.224zm-233.216 84.576C217.072 353.632 236.416 352 256 352c19.584 0 38.928 1.632 57.76 4.576C302.656 441.936 278.4 496 256 496s-46.656-54.064-57.776-139.424zm24.304 134.048c-44.016-14.112-81.248-55.536-103.712-111.744 19.936-8.4 41.376-14.96 63.84-19.472 7.344 55.936 20.768 104.672 39.872 131.216zm-26.144-319.28C215.856 174.352 235.824 176 256 176c20.176 0 40.144-1.648 59.616-4.656C318.368 197.264 320 225.552 320 256H192c0-30.448 1.632-58.736 4.384-84.656zM319.76 272c-.448 24.4-1.888 47.376-4.16 68.656C296.144 337.648 276.192 336 256 336s-40.144 1.648-59.616 4.656c-2.768-26.016-3.792-48.912-4.16-68.656H319.76zm9.6 87.408c22.464 4.512 43.888 11.072 63.84 19.472-22.464 56.208-59.696 97.632-103.712 111.744 19.088-26.544 32.512-75.28 39.872-131.216zM336 256c0-29.376-1.632-59.136-4.704-87.52 23.68-4.672 46.336-11.52 67.44-20.336C409.68 180.608 416 217.184 416 256h-80zm-6.64-103.408C322 96.656 308.592 47.904 289.472 21.376c44.016 14.112 81.248 55.536 103.712 111.744-19.936 8.4-41.36 14.976-63.824 19.472zm-15.584 2.832C294.928 158.368 275.584 160 256 160s-38.928-1.632-57.776-4.576C209.344 70.064 233.6 16 256 16c22.4 0 46.656 54.064 57.776 139.424zm-131.136-2.832c-22.464-4.512-43.888-11.072-63.84-19.472 22.464-56.208 59.696-97.632 103.712-111.744C203.424 47.92 190 96.656 182.64 152.592zm-1.936 15.888C177.632 196.864 176 226.624 176 256H96c0-38.816 6.32-75.392 17.264-107.872 21.104 8.832 43.76 15.664 67.44 20.352zM176.224 272c.464 24.128 1.952 48.272 4.48 71.536-23.68 4.672-46.336 11.52-67.44 20.336C103.84 335.904 98 304.88 96.544 272h79.68zM98.72 370.224c-14.08 6.752-27.152 14.512-39.296 23.04-24.4-34.816-39.632-76.352-42.608-121.264H80.56c1.504 35.136 7.856 68.32 18.16 98.224zM69.008 406.08c10.96-7.664 22.672-14.752 35.312-20.88 16.064 39.76 39.184 72.768 66.976 95.088C130.88 464.96 95.632 439.2 69.008 406.08zm271.696 74.192c27.808-22.304 50.912-55.328 66.976-95.088 12.64 6.144 24.352 13.216 35.312 20.88-26.624 33.136-61.872 58.896-102.288 74.208zM432 256c0-41.072-6.848-79.792-18.72-114.224a276.034 276.034 0 0 0 39.312-23.04C479.856 157.68 496 204.96 496 256h-64zm11.008-150.08c-10.96 7.664-22.672 14.736-35.312 20.88-16.064-39.76-39.184-72.784-66.976-95.088 40.4 15.328 75.648 41.088 102.288 74.208zM171.296 31.728c-27.808 22.304-50.912 55.328-66.976 95.088-12.656-6.144-24.352-13.232-35.312-20.896C95.632 72.8 130.88 47.04 171.296 31.728zM59.424 118.736a274.967 274.967 0 0 0 39.296 23.04C86.848 176.208 80 214.928 80 256H16c0-51.04 16.144-98.32 43.424-137.264z"/></symbol></svg>