<svg class="icon" id="bookmark" xmlns="http://www.w3.org/2000/svg" viewBox="0 0 448 512"><path d="M24 144c-4.416 0-8 3.584-8 8v335.136c0 10.64 5.056 16.624 9.312 19.76C30.4 510.672 36.384 512 41.728 512c3.216 0 6.192-.48 8.608-1.232 46.864-14.32 149.52-119.712 175.568-147.04 25.392 27.488 124.88 132.72 171.744 147.04 6.464 1.984 16.88 2.16 25.024-3.888 4.272-3.136 9.328-9.104 9.328-19.744V152c0-4.416-3.584-8-8-8s-8 3.584-8 8v335.136c0 4.32-1.616 6-2.832 6.896-2.848 2.112-7.744 2.4-10.832 1.456-48.64-14.864-169.2-147.52-170.4-148.848a7.994 7.994 0 0 0-5.872-2.64c-2.032-.016-4.368.896-5.904 2.544-1.248 1.328-125.792 134.048-174.496 148.944-3.072.944-7.984.656-10.832-1.456-1.216-.896-2.832-2.592-2.832-6.896V152c0-4.416-3.584-8-8-8zm424-40V24c0-13.232-10.768-24-24-24H24C10.768 0 0 10.768 0 24v80c0 4.416 3.584 8 8 8h432c4.416 0 8-3.584 8-8zm-16-8H16V24c0-4.416 3.584-8 8-8h400c4.416 0 8 3.584 8 8v72z"/></svg>
