<svg class="icon" id="bulb" xmlns="http://www.w3.org/2000/svg" viewBox="0 0 352 512"><path d="M176 0C91.36 0 0 67.296 0 176c0 53.648 21.344 98.784 62.336 132.992a7.655 7.655 0 0 0 1.472 1.408c30.416 32.992 31.952 39.264 32.16 53.776.096 5.744.048 7.44 0 8.368l-.064 3.344c-.24 7.232-.608 19.344 14.384 23.92l129.504 28.496a7.91 7.91 0 0 0 1.712.192c3.68 0 6.992-2.544 7.808-6.288.96-4.32-1.776-8.592-6.096-9.536l-128.88-28.336c-2.48-.752-2.688-.816-2.464-7.968l.048-3.056s.16-1.248.032-9.376c-.304-20.304-4.72-30.112-36.944-64.944a8.012 8.012 0 0 0-2.208-1.888C35.104 265.056 16 224.32 16 176 16 77.168 99.04 16 176 16c78.656 0 160 59.856 160 160 0 63.648-30.848 98.736-56.288 120.816a7.764 7.764 0 0 0-2.352 1.744c-32.592 35.264-37.008 45.072-37.312 65.376 0 .48-.016 1.04 0 1.648l-.016.56c-.048 1.216-.224 1.888-.208 2.144-.544-.08-1.872-.288-1.872-.288l-67.12-15.792c-4.352-.992-8.608 1.664-9.616 5.952a8.016 8.016 0 0 0 5.952 9.632l66.304 15.552c.88.32 8.848 2.912 15.568-1.808 2.928-2.064 6.336-6.112 6.944-13.856l.048-.752c.016-.512.032-1.04.032-1.584 0-.144 0-.288-.016-.416l.016-.736c.208-14.432 1.712-20.704 32.08-53.696.144-.112.304-.224.432-.352C331.248 274.288 352 230.4 352 176 352 65.84 262.512 0 176 0zm64 472c3.664 0 6.96-2.512 7.792-6.24.992-4.304-1.712-8.592-6.032-9.568l-128-29.024c-4.336-.96-8.592 1.728-9.568 6.032-.992 4.304 1.712 8.592 6.032 9.568l128 29.024c.608.144 1.2.208 1.776.208zm-118.256.864a8.018 8.018 0 0 0-9.568 6.048c-.96 4.32 1.744 8.592 6.064 9.552l104 23.328A7.542 7.542 0 0 0 224 512c3.664 0 6.976-2.528 7.808-6.256.96-4.32-1.744-8.592-6.064-9.552l-104-23.328z"/></svg>
