<svg class="icon" id="calendar" xmlns="http://www.w3.org/2000/svg" viewBox="0 0 544 512"><path d="M544 488V184c0-4.416-3.584-8-8-8s-8 3.584-8 8v304c0 4.416-3.584 8-8 8H24c-4.416 0-8-3.584-8-8V184c0-4.416-3.584-8-8-8s-8 3.584-8 8v304c0 13.232 10.768 24 24 24h496c13.232 0 24-10.768 24-24zM72 368c-4.416 0-8 3.584-8 8s3.584 8 8 8h24v56c0 4.416 3.584 8 8 8s8-3.584 8-8v-56h96v56c0 4.416 3.584 8 8 8s8-3.584 8-8v-56h96v56c0 4.416 3.584 8 8 8s8-3.584 8-8v-56h96v56c0 4.416 3.584 8 8 8s8-3.584 8-8v-56h24c4.416 0 8-3.584 8-8s-3.584-8-8-8h-24v-80h24c4.416 0 8-3.584 8-8s-3.584-8-8-8h-24v-72c0-4.416-3.584-8-8-8s-8 3.584-8 8v72h-96v-72c0-4.416-3.584-8-8-8s-8 3.584-8 8v72h-96v-72c0-4.416-3.584-8-8-8s-8 3.584-8 8v72h-96v-72c0-4.416-3.584-8-8-8s-8 3.584-8 8v72H72c-4.416 0-8 3.584-8 8s3.584 8 8 8h24v80H72zm360-80v80h-96v-80h96zm-112 0v80h-96v-80h96zm-208 0h96v80h-96v-80zM456 48h68c1.392 0 4 0 4 8v72H16V56c0-4.416 3.584-8 8-8h64c4.416 0 8-3.584 8-8s-3.584-8-8-8H24C10.768 32 0 42.768 0 56v80c0 4.416 3.584 8 8 8h528c4.416 0 8-3.584 8-8V56c0-17.696-10.336-24-20-24h-68c-4.416 0-8 3.584-8 8s3.584 8 8 8zm-96 0c4.416 0 8-3.584 8-8s-3.584-8-8-8H184c-4.416 0-8 3.584-8 8s3.584 8 8 8h176zM144 72V8c0-4.416-3.584-8-8-8s-8 3.584-8 8v64c0 4.416 3.584 8 8 8s8-3.584 8-8zm264 8c4.416 0 8-3.584 8-8V8c0-4.416-3.584-8-8-8s-8 3.584-8 8v64c0 4.416 3.584 8 8 8z"/></svg>
