<svg class="icon" id="cogs" xmlns="http://www.w3.org/2000/svg" viewBox="0 0 672 512"><path d="M59.072 347.52c2.816.672 6.64 4.144 7.744 7.312l5.6 13.504c1.264 2.592 1.024 7.728-.48 10.192l-22.352 36.544c-4.784 7.84-3.792 18.944 2.64 26.144l18.928 18.912c6.592 5.856 18.224 6.912 25.808 2.32l36.544-22.352c2.288-1.408 7.2-1.904 10.64-.288l13.488 5.568c2.72.944 6.192 4.752 6.864 7.568l10.032 41.664c2.128 8.832 10.56 16.096 19.616 16.928 0 0 5.552.512 13.872.512s13.872-.512 13.888-.512c9.04-.816 17.472-8.096 19.6-16.928l10.048-41.664c.672-2.8 4.128-6.624 7.296-7.728l13.504-5.6c2.384-1.168 7.904-.928 10.192.48l36.544 22.352c3.216 1.968 7.056 3.008 11.136 3.008 5.52 0 10.864-1.936 15.008-5.632l18.912-18.928c6.112-6.864 7.104-17.968 2.32-25.808l-22.352-36.544c-1.504-2.464-1.744-7.6-.288-10.64l5.568-13.488c.944-2.72 4.752-6.192 7.568-6.864l41.664-10.032c8.832-2.128 16.096-10.56 16.928-19.616 0 0 .512-5.552.512-13.872s-.512-13.872-.512-13.888c-.816-9.04-8.096-17.472-16.928-19.616l-41.648-10.016c-2.816-.672-6.64-4.144-7.744-7.312l-5.6-13.504c-1.264-2.592-1.024-7.728.48-10.192l22.352-36.544c4.784-7.84 3.792-18.944-2.64-26.144l-18.928-18.912c-6.608-5.872-18.256-6.928-25.808-2.32l-36.544 22.352c-2.288 1.392-7.216 1.92-10.64.288l-13.488-5.568c-2.72-.944-6.176-4.752-6.848-7.568l-10.048-41.664c-2.128-8.832-10.56-16.096-19.616-16.928-.032.016-5.584-.496-13.904-.496s-13.872.512-13.888.512c-9.04.816-17.472 8.096-19.616 16.928l-10.016 41.632c-.672 2.816-4.144 6.64-7.312 7.744l-13.504 5.6c-2.4 1.168-7.904.912-10.192-.48l-36.528-22.352c-7.568-4.608-18.96-3.808-26.144 2.624l-18.912 18.928c-6.112 6.864-7.104 17.968-2.32 25.808l22.352 36.544c1.504 2.464 1.744 7.6.288 10.64l-5.568 13.488c-.944 2.72-4.752 6.192-7.568 6.864l-41.664 10.032C8.576 272.64 1.312 281.072.48 290.128c.032 0-.48 5.552-.48 13.872s.512 13.872.512 13.888c.816 9.04 8.096 17.472 16.928 19.616l41.632 10.016zM16 304c0-7.328.432-12.272.448-12.432.192-2.16 2.64-4.992 4.736-5.504l41.664-10.032c8.08-1.952 16.224-9.344 18.752-16.752l5.184-12.592c3.648-7.472 3.136-18.448-1.2-25.552l-22.352-36.528c-1.072-1.776-.768-5.296.288-6.496l18.256-18.272c1.456-1.296 5.168-1.616 6.832-.608l36.544 22.352c6.928 4.24 18.8 4.528 25.088 1.408l12.608-5.216c7.856-2.704 15.248-10.848 17.2-18.944l10.016-41.648c.512-2.112 3.344-4.56 5.504-4.752.16 0 5.104-.432 12.432-.432s12.272.432 12.432.448c2.16.192 4.992 2.64 5.504 4.736l10.032 41.648c1.952 8.08 9.328 16.24 16.752 18.768l12.592 5.184c7.312 3.584 18.64 3.024 25.552-1.2l36.528-22.352c1.664-1.008 5.6-.48 6.496.288l18.272 18.256c1.376 1.552 1.68 5.056.608 6.832l-22.352 36.544c-4.336 7.088-4.848 18.08-1.408 25.088l5.216 12.608c2.704 7.856 10.848 15.248 18.944 17.2l41.648 10.016c2.112.512 4.56 3.344 4.752 5.504 0 .16.432 5.104.432 12.432s-.432 12.272-.448 12.432c-.192 2.16-2.64 4.992-4.736 5.504l-41.664 10.032c-8.08 1.952-16.224 9.344-18.752 16.752l-5.184 12.592c-3.648 7.472-3.136 18.448 1.2 25.552l22.352 36.528c1.072 1.776.768 5.296-.288 6.496l-18.256 18.272c-.864.768-2.432 1.264-4.016 1.264-1.104 0-2.128-.24-2.8-.656l-36.544-22.352c-6.912-4.224-18.784-4.528-25.088-1.408l-12.608 5.216c-7.856 2.704-15.248 10.864-17.184 18.944l-10.032 41.648c-.512 2.112-3.344 4.56-5.504 4.752-.176 0-5.12.432-12.448.432s-12.272-.432-12.432-.448c-2.16-.192-4.992-2.64-5.504-4.736l-10.032-41.664c-1.952-8.08-9.344-16.224-16.752-18.752l-12.592-5.184c-3.264-1.6-7.216-2.432-11.44-2.432-5.264 0-10.272 1.296-14.112 3.648l-36.528 22.352c-1.664 1.008-5.616.464-6.496-.288L63.84 430.224c-1.376-1.552-1.68-5.056-.608-6.832l22.352-36.544c4.336-7.088 4.848-18.08 1.408-25.088l-5.216-12.608c-2.704-7.856-10.848-15.248-18.944-17.2l-41.648-10.016c-2.112-.512-4.56-3.344-4.752-5.504 0-.16-.432-5.104-.432-12.432zm192 88c48.528 0 88-39.472 88-88s-39.472-88-88-88-88 39.472-88 88 39.472 88 88 88zm0-160c39.696 0 72 32.304 72 72s-32.304 72-72 72-72-32.304-72-72 32.304-72 72-72zM439.632 85.024c-.64.976-2.96 2.208-4.144 2.208l-29.776-.288c-7.232 0-14.48 5.136-16.848 11.936 0 0-1.312 3.728-2.752 9.44-1.44 5.712-2.048 9.616-2.048 9.616-1.12 7.216 2.896 15.2 9.344 18.576l26.256 13.76c1.008.528 2.496 2.752 2.656 4.368l1.488 10.16c.24 1.12-.528 3.68-1.344 4.48l-21.152 20.736c-5.296 5.184-6.688 14.048-3.04 21.008l9.584 16c4.048 5.952 12.816 8.992 19.696 6.848l29.184-8.928c1.584 0 3.168.608 4.064 1.328l8.24 6.08c.96.64 2.224 2.992 2.208 4.144l-.288 29.632c-.064 7.296 5.056 14.608 11.936 17.008 0 0 3.728 1.312 9.44 2.752 5.712 1.44 9.616 2.048 9.616 2.048.416.064 2.08.192 2.496.192 6.528 0 13.152-3.92 16.08-9.536l13.76-26.256c.528-1.008 2.752-2.496 4.368-2.656l10.608-1.536c1.6 0 3.488.832 4.016 1.376l20.736 21.152c5.04 5.152 13.536 6.992 21.008 3.04l15.984-9.584c6.112-4.16 9.072-12.64 6.864-19.696l-8.832-28.272c-.336-1.088.192-3.712 1.248-4.976l6.08-8.24c.64-.976 2.96-2.208 4.144-2.208l29.776.288c7.232 0 14.48-5.136 16.848-11.936 0 0 1.312-3.728 2.752-9.44 1.44-5.712 2.048-9.616 2.048-9.616 1.12-7.216-2.896-15.2-9.344-18.576l-26.256-13.76c-1.008-.528-2.496-2.752-2.656-4.368l-1.472-10.128c-.24-1.12.528-3.68 1.344-4.48l21.152-20.736c5.296-5.184 6.688-14.048 3.04-21.008l-9.584-16c-4.048-5.936-12.8-9.008-19.696-6.864l-29.2 8.928c-1.584 0-3.168-.608-4.064-1.328l-8.24-6.08c-.96-.64-2.224-2.992-2.208-4.144l.288-29.632c.064-7.296-5.056-14.608-11.936-17.008 0 0-3.728-1.312-9.44-2.752-5.712-1.44-9.616-2.048-9.616-2.048-.416-.048-2.08-.176-2.496-.176-6.528 0-13.152 3.92-16.08 9.536l-13.76 26.256c-.528 1.008-2.752 2.496-4.368 2.656l-10.608 1.52c-1.6 0-3.488-.832-4.016-1.376l-20.736-21.152c-5.024-5.136-13.504-6.992-21.008-3.04l-16 9.568c-6.112 4.16-9.072 12.64-6.864 19.696l8.832 28.272c.336 1.088-.192 3.712-1.248 4.976l-6.064 8.24zm13.12 9.152l5.488-7.456c4.288-5.072 5.952-13.344 3.968-19.664L453.392 38.8c-.08-.448.272-1.456.192-1.472l15.168-9.088 1.808.272 20.752 21.152c3.68 3.744 9.744 6.176 15.44 6.176 1.312 0 2.576-.128 3.264-.304l9.2-1.36c6.592-.576 13.616-5.248 16.688-11.104l13.744-26.24c.256-.4 1.264-.976 1.92-.976.176.016 3.44.56 8.208 1.744 4.752 1.2 7.888 2.272 8.032 2.336.496.208 1.216 1.248 1.248 1.76l-.288 29.632c-.064 6.624 3.92 14.064 9.072 17.424l7.44 5.488c4.944 4.176 13.424 5.936 19.664 3.968l28.384-8.832c.672 0 1.424.416 1.328.208l9.088 15.168c.176.416 0 1.472-.272 1.808l-21.152 20.752c-4.72 4.656-7.168 12.72-5.872 18.704l1.344 9.2c.576 6.592 5.248 13.616 11.12 16.688l26.24 13.744c.448.288 1.008 1.408.976 1.92-.016.176-.56 3.44-1.744 8.208-1.2 4.752-2.272 7.888-2.336 8.032-.208.496-1.248 1.216-1.76 1.248l-29.792-.288c-6.576 0-13.936 3.984-17.264 9.072l-5.472 7.44c-4.288 5.072-5.952 13.344-3.968 19.664l8.816 28.256c.08.432-.272 1.456-.192 1.472l-15.168 9.088-1.808-.272-20.752-21.152c-3.68-3.744-9.744-6.176-15.44-6.176-1.312 0-2.576.128-3.264.304l-9.2 1.36c-6.592.576-13.616 5.248-16.688 11.104l-13.744 26.24c-.256.4-1.264.976-1.92.976-.176-.016-3.44-.56-8.208-1.744-4.752-1.2-7.888-2.272-8.032-2.336-.496-.208-1.216-1.248-1.248-1.76l.288-29.632c.064-6.624-3.92-14.064-9.072-17.424l-7.44-5.488c-3.552-3.008-8.784-4.8-14-4.8-2.016 0-3.936.288-5.68.832l-28.384 8.832c-.688 0-1.44-.368-1.328-.208l-9.088-15.168c-.176-.416 0-1.472.272-1.808l21.152-20.752c4.72-4.656 7.168-12.72 5.872-18.704l-1.344-9.184c-.576-6.592-5.248-13.616-11.12-16.688l-26.24-13.744c-.448-.288-1.008-1.408-.976-1.92.016-.176.56-3.44 1.744-8.208 1.2-4.752 2.272-7.888 2.336-8.032.208-.496 1.248-1.216 1.76-1.248l29.792.288c6.576 0 13.936-3.984 17.264-9.072zM528 192c26.464 0 48-21.536 48-48s-21.536-48-48-48-48 21.536-48 48 21.536 48 48 48zm0-80c17.648 0 32 14.352 32 32s-14.352 32-32 32-32-14.352-32-32 14.352-32 32-32z"/></svg>
