<svg class="icon" id="desktop" xmlns="http://www.w3.org/2000/svg" viewBox="0 0 624 512"><path d="M24 400h280v24c0 4.416 3.584 8 8 8s8-3.584 8-8v-24h280c13.232 0 24-10.768 24-24V24c0-13.232-10.768-24-24-24H24C10.768 0 0 10.768 0 24v352c0 13.232 10.768 24 24 24zM16 24c0-4.416 3.584-8 8-8h576c4.416 0 8 3.584 8 8v352c0 4.416-3.584 8-8 8H24c-4.416 0-8-3.584-8-8V24zm40 328h512c4.416 0 8-3.584 8-8V56c0-4.416-3.584-8-8-8H56c-4.416 0-8 3.584-8 8v288c0 4.416 3.584 8 8 8zm8-288h496v272H64V64zm160 384c-18.24 0-32 13.76-32 32v24c0 4.416 3.584 8 8 8h224c4.416 0 8-3.584 8-8v-22.8c0-18.608-14.048-33.2-32-33.2H224zm192 33.2V496H208v-16c0-9.424 6.576-16 16-16h176c9.12 0 16 7.392 16 17.2z"/></svg>
