<svg class="icon" id="devices" xmlns="http://www.w3.org/2000/svg" viewBox="0 0 512 512"><path d="M24 512h224c4.416 0 8-3.584 8-8s-3.584-8-8-8H24c-4.416 0-8-3.584-8-8V24c0-4.416 3.584-8 8-8h336c4.416 0 8 3.584 8 8v80c0 4.416 3.584 8 8 8s8-3.584 8-8V24c0-13.232-10.768-24-24-24H24C10.768 0 0 10.768 0 24v464c0 13.232 10.768 24 24 24zm264-344v320c0 13.232 10.768 24 24 24h176c13.232 0 24-10.768 24-24V168c0-13.232-10.768-24-24-24H312c-13.232 0-24 10.768-24 24zm208 0v320c0 4.416-3.584 8-8 8H312c-4.416 0-8-3.584-8-8V168c0-4.416 3.584-8 8-8h176c4.416 0 8 3.584 8 8zM176 448a16 16 0 1 1 32 0 16 16 0 1 1-32 0zm208 0a16 16 0 1 1 32 0 16 16 0 1 1-32 0z"/></svg>
