<svg class="normal-icon" id="heart_o" xmlns="http://www.w3.org/2000/svg" viewBox="0 0 592 512"><path d="M432 0c-39.616 0-77.696 14.736-107.264 41.52A159.528 159.528 0 0 0 296 75.984c-7.888-12.752-17.504-24.304-28.736-34.48C237.696 14.736 199.616 0 160 0 71.776 0 0 71.776 0 160c0 59.552 18.528 106.56 61.936 157.2 63.072 73.6 222.704 185.92 229.472 190.672 1.376.976 2.992 1.456 4.592 1.456s3.216-.48 4.592-1.456C307.36 503.12 466.992 390.8 530.08 317.2 573.472 266.56 592 219.552 592 160 592 71.776 520.224 0 432 0zm85.936 306.8C462.016 372.016 323.056 472.256 296 491.52 268.944 472.256 129.984 372.016 74.08 306.8 33.36 259.296 16 215.392 16 160 16 80.592 80.608 16 160 16c35.632 0 69.92 13.264 96.512 37.36 13.408 12.16 24.288 26.496 32.32 42.624 2.72 5.44 11.616 5.44 14.336 0 8.032-16.128 18.912-30.464 32.32-42.608C362.08 29.264 396.368 16 432 16c79.392 0 144 64.592 144 144 0 55.392-17.36 99.296-58.064 146.8z"/></svg>
