<svg class="icon" id="image" xmlns="http://www.w3.org/2000/svg" viewBox="0 0 512 512"><path d="M24 512h464c13.232 0 24-10.768 24-24V24c0-13.232-10.768-24-24-24H24C10.768 0 0 10.768 0 24v464c0 13.232 10.768 24 24 24zM16 24c0-4.416 3.6-8 8-8h464c4.4 0 8 3.584 8 8v464c0 4.416-3.6 8-8 8H24c-4.4 0-8-3.584-8-8V24zm312 176c17.648 0 32-14.352 32-32s-14.352-32-32-32-32 14.352-32 32 14.352 32 32 32zm0-48c8.832 0 16 7.184 16 16s-7.168 16-16 16-16-7.184-16-16 7.168-16 16-16zM72 400h368c4.416 0 8-3.584 8-8V72c0-4.416-3.584-8-8-8H72c-4.416 0-8 3.584-8 8v320c0 4.416 3.584 8 8 8zm8-16v-90.208c.352-.256.752-.4 1.072-.72l81.856-81.856c4.16-4.16 11.392-4.144 15.552 0l120.336 120.336a7.968 7.968 0 0 0 5.664 2.336 7.999 7.999 0 0 0 5.52-2.208l61.856-58.752a10.945 10.945 0 0 1 7.776-3.232c2.944 0 5.68 1.152 7.536 2.992L432 321.52s.016 0 .016.016V384H80zM432 80v217.888l-33.296-36.256c-5.072-5.104-11.856-7.92-19.056-7.92h-.016c-7.216 0-14 2.816-18.96 7.776l-56.064 53.248-114.816-114.832c-10.224-10.208-27.984-10.192-38.176 0L80 271.536V80h352z"/></svg>
