<svg class="icon" id="laptop" xmlns="http://www.w3.org/2000/svg" viewBox="0 0 672 512"><path d="M56 416c4.416 0 8-3.584 8-8V32c0-9.568 6.432-16 16-16h512c9.12 0 16 7.488 16 17.424V408c0 4.416 3.584 8 8 8s8-3.584 8-8V33.424C624 14.672 609.952 0 592 0H80C61.456 0 48 13.456 48 32v376c0 4.416 3.584 8 8 8zm48-368c-4.416 0-8 3.584-8 8v352c0 4.416 3.584 8 8 8h464c4.416 0 8-3.584 8-8V56c0-4.416-3.584-8-8-8H104zm456 352H112V64h448v336zm104 48H8c-4.416 0-8 3.584-8 8v18.8C0 493.968 22.528 512 40 512h592c18.32 0 40-21.68 40-40v-16c0-4.416-3.584-8-8-8zm-8 24c0 9.424-14.576 24-24 24H40c-10.096 0-24-12.288-24-21.2V464h640v8z"/></svg>
