<svg class="icon" id="link" xmlns="http://www.w3.org/2000/svg" viewBox="0 0 512 512"><path d="M303.776 263.536c2.624.288 5.232.416 7.84.416 19.456 0 38.112-7.696 52.128-21.712l118.48-118.48c13.856-13.856 21.584-32.224 21.696-51.696.144-19.52-7.344-37.824-21.056-51.552-13.6-13.6-31.68-21.072-51.008-21.072h-.528c-19.472.128-37.824 7.84-51.68 21.696l-118.48 118.48c-17.52 17.52-25.104 42.384-20.304 66.512.928 4.64 5.536 7.664 10.064 6.704 4.64-.928 7.648-5.424 6.72-10.048-3.696-18.512 2.144-37.616 15.616-51.072l118.48-118.48C402.4 22.56 416.512 16.64 431.456 16.544c15.6 0 28.88 5.6 39.328 16.048s16.16 24.432 16.064 39.328c-.112 14.96-6.032 29.056-16.704 39.712l-118.48 118.48c-12.224 12.208-29.008 18.128-46.064 16.384-4.56-.528-8.912 2.896-9.408 7.6-.512 4.736 2.896 8.944 7.584 9.44zM242.24 372.368c18.368-18.368 25.728-44.304 19.664-69.344-1.104-4.592-5.616-7.456-10.336-6.304-4.592 1.104-7.408 5.728-6.304 10.32 4.656 19.216-1.008 39.104-15.136 53.248l-118.48 118.48c-10.656 10.672-24.768 16.592-39.712 16.688-15.344.08-28.88-5.584-39.328-16.048-10.448-10.448-16.16-24.416-16.048-39.328.096-14.96 6.032-29.056 16.688-39.728l118.48-118.48c12.336-12.336 29.152-18.304 46.496-16.336 4.608.352 8.944-2.832 9.472-7.536a8.569 8.569 0 0 0-7.536-9.472c-22.464-2.528-44.48 5.184-60.528 21.232L21.152 388.24C7.296 402.096-.416 420.464-.544 439.936c-.144 19.52 7.344 37.824 21.056 51.552 13.6 13.6 31.68 21.072 51.008 21.072h.528c19.472-.128 37.824-7.84 51.68-21.696L242.24 372.368zm121.504-230.416a8.546 8.546 0 0 0-12.096 0l-216 216c-3.344 3.328-3.344 8.752 0 12.096 1.664 1.664 3.856 2.512 6.048 2.512s4.368-.832 6.048-2.512l216-216a8.546 8.546 0 0 0 0-12.096z"/></svg>
