<svg class="icon" id="lupe" xmlns="http://www.w3.org/2000/svg" viewBox="0 0 512 512"><path d="M168 0C75.36 0 0 75.36 0 168s75.36 168 168 168c43.6 0 83.248-16.832 113.136-44.16.352.624.672 1.28 1.216 1.824l34.416 34.416c-2.88 4.864-4.512 10.368-4.512 16.176 0 8.544 3.328 16.576 9.376 22.624l135.76 135.76c6.032 6.032 14.064 9.36 22.608 9.36s16.576-3.328 22.624-9.376S512 488.544 512 480s-3.328-16.576-9.376-22.624l-135.76-135.76c-10.144-10.144-26.544-11.664-38.72-4.784l-34.48-34.48c-.544-.544-1.184-.864-1.824-1.216C319.168 251.248 336 211.6 336 168 336 75.36 260.64 0 168 0zm187.552 332.928l135.76 135.76c3.024 3.024 4.688 7.04 4.688 11.312s-1.664 8.288-4.688 11.312c-6.064 6.032-16.56 6.032-22.624 0l-135.76-135.76c-3.008-3.024-4.688-7.04-4.688-11.312s1.664-8.288 4.688-11.312c3.024-3.008 7.04-4.688 11.312-4.688s8.272 1.664 11.312 4.688zM168 320c-83.808 0-152-68.192-152-152S84.192 16 168 16s152 68.192 152 152-68.192 152-152 152zm0-272c-66.176 0-120 53.824-120 120s53.824 120 120 120 120-53.824 120-120S234.176 48 168 48zm0 224c-57.344 0-104-46.656-104-104S110.656 64 168 64s104 46.656 104 104-46.656 104-104 104z"/></svg>
