<svg class="icon" id="microphone" xmlns="http://www.w3.org/2000/svg" viewBox="0 0 240 512"><path d="M112 384.112V448H64.544c-18.256 0-32 13.744-32 32v24c0 4.416 3.584 8 8 8h160c4.416 0 8-3.584 8-8v-22.8c0-18.624-14.064-33.2-32-33.2H128v-63.888c63.568-4.448 113.088-56.96 113.088-121.024v-30.192c0-4.72-3.824-8.544-8.544-8.544s-8.544 3.84-8.544 8.56v30.192c0 57.552-46.4 104.352-103.456 104.352S17.088 320.64 17.088 263.104v-30.192c0-4.72-3.824-8.544-8.544-8.544S0 228.192 0 232.912v30.192c0 64.048 49.52 116.56 112 121.008zm80.544 97.088V496h-144v-16c0-9.424 6.576-16 16-16h112c9.12 0 16 7.392 16 17.2zm-72-481.744C80.544-.544 48 32.4 48 72.912v190.192c0 40.496 32.544 73.456 72.544 73.456S193.088 303.6 192 263.104V72.912C193.088 32.4 160.544-.544 120.544-.544zM176 263.088c0 31.072-24.88 56.352-55.456 56.352S64 294.176 64 263.088V72.912C64 41.84 89.968 16.56 120.544 16.56S176 41.824 176 72.912v190.176z"/></svg>
