<svg class="social-icon" id="social_icon_pinterest" xmlns="http://www.w3.org/2000/svg" viewBox="0 0 512 512">
<path d="M180.2,500.2c24.3,7.4,49.3,11.8,75.8,11.8c141.2,0,256-114.8,256-256S397.2,0,256,0S0,114.8,0,256
	c0,108.9,68.4,202.3,164.8,239.1c-2.2-19.9-4.4-53,0-75.8l29.4-126.5c0,0-7.4-14.7-7.4-38.3c0-35.3,22.1-61.8,47.1-61.8
	c22.1,0,32.4,16.2,32.4,36.8c0,22.1-14.7,53.7-22.1,83.9c-4.4,25,13.2,47.1,39,47.1c45.6,0,80.9-48.6,80.9-117.7
	c0-61.1-44.1-103-107.4-103c-72.1,0-114.8,53.7-114.8,110.3c0,22.1,7.4,44.1,19.1,58.9c2.2,1.5,2.2,3.7,1.5,7.4l-7.4,28
	c0,4.4-2.9,5.9-7.4,2.9c-32.4-14.7-51.5-61.1-51.5-98.6c0-80.9,57.4-154.5,167.7-154.5c88.3,0,156.7,63.3,156.7,147.1
	c0,88.3-54.4,158.9-132.4,158.9c-25,0-49.3-13.2-57.4-29.4l-17.7,61.1c-5.9,22.1-22.1,51.5-33.1,69.1V500.2z"/>
</svg>
