<svg class="social-icon" id="social_icon_twitter_bird" xmlns="http://www.w3.org/2000/svg" viewBox="0 0 512 512">
<path d="M512,97.2c-18.8,8.4-39.1,14-60.3,16.5c21.7-13,38.4-33.6,46.2-58.1c-20.3,12-42.8,20.8-66.7,25.5
	c-19.1-20.4-46.5-33.2-76.7-33.2c-58,0-105.1,47-105.1,105.1c0,8.2,0.9,16.3,2.7,23.9c-87.3-4.3-164.7-46.2-216.6-109.7
	c-9,15.5-14.2,33.5-14.2,52.8c0,36.4,18.5,68.6,46.7,87.4c-17.3-0.5-33.4-5.3-47.6-13.1c0,0.4,0,0.9,0,1.3
	c0,50.9,36.2,93.4,84.3,103c-8.8,2.4-18.1,3.7-27.7,3.7c-6.8,0-13.4-0.7-19.8-1.9c13.4,41.7,52.2,72.1,98.1,73
	c-35.9,28.2-81.2,45-130.5,45c-8.5,0-16.8-0.5-25.1-1.5c46.5,29.8,101.7,47.2,161.1,47.2C354.3,464.1,460,304,460,165.2
	c0-4.6-0.1-9.1-0.3-13.6C480.1,136.8,497.9,118.3,512,97.2z"/>
</svg>
