<svg class="social-icon" id="social_icon_pinterest_circle" xmlns="http://www.w3.org/2000/svg" viewBox="0 0 512 512">
<g>
	<path d="M183.7,419.3l-1.9-13.3c-6.7-47.2,3.6-85.4,13.5-122.2c3.3-12.1,6.3-23.7,8.8-35.4c-10.4-20.9-6.8-52.3,8.7-70.5
		c10.8-12.6,25.6-16.5,40.7-10.5c8.8,3.5,19.3,11.6,18.7,30.6c-0.3,11.5-4.5,24.7-8.6,37.4c-5.1,16.1-10.9,34.4-5.9,42.9
		c1.9,3.2,5.7,5.4,11.5,6.6c11.3,2.3,27.5-0.1,40.6-24.4c17.3-32,16.2-80.1-2.3-98.9c-10.7-10.8-24.3-17.3-39.5-18.8
		c-14.1-1.3-29.4,1.7-43.1,8.7c-23.4,11.9-48.6,39.2-42.4,77.3c0.8,4.8,3,8.5,5.7,12.9c5.7,9.4,12.7,21,1,41.8l-2.9,5.2l-5.8-1.3
		c-18.1-4-31.2-13.4-39.2-27.9c-6.8-12.4-9.7-28.3-9-48.7c1-28.6,13.5-55.7,35.1-76.2c19.7-18.7,46.2-31.2,72.8-34.1
		c33.1-3.7,65.1,2.4,90,17.3c26.9,16,44,41.3,48.1,71.4c5.9,43.1-6.5,86.9-32.4,114.4c-19.1,20.3-43.8,29.9-71.3,27.8
		c-15.5-1.2-24.4-7.2-33.7-13.7c-7.9,38.5-18.6,73.7-46.5,93.9L183.7,419.3z M239.7,180.8c-5.4,0-10.3,2.5-14.6,7.6
		c-11.7,13.8-14.4,39.8-5.6,54.7l1.6,2.7l-0.6,3c-2.7,13.3-6.2,26.5-9.7,39.2c-8.3,31-16.9,63-14.7,100.1
		c17.6-20.4,24.9-52,31.3-85.4l2.2-11.4l9.9,6c3.7,2.3,6.9,4.5,10,6.6c8.6,6,14.9,10.3,26.3,11.2c22.4,1.7,42.6-6.1,58.3-22.8
		c22.3-23.7,33.4-63.4,28.2-101.1c-3.5-25.5-17.5-46.1-40.4-59.7c-22-13.1-50.4-18.4-80-15.1c-23.1,2.6-46.3,13.5-63.5,29.8
		c-13.1,12.5-29,33.9-30.1,65.1c-1.2,33,7.9,51.4,29.5,58.6c3.4-8.6,0.8-12.9-3.5-19.9c-3.1-5.1-6.5-10.8-7.8-18.7
		c-3.2-19.8,0.5-39.5,10.6-56.8c9.1-15.6,23.5-28.9,40.4-37.4c35.8-18.2,75.6-13,101.4,13.2c26.2,26.6,23.6,83.4,5,117.9
		c-13.7,25.3-34.8,37.2-58,32.6c-10.5-2.1-17.9-6.9-22.2-14.2c-8.7-14.7-2-35.7,4.4-56c11.6-36.6,9.3-44.1-0.7-48.1
		C244.9,181.3,242.3,180.8,239.7,180.8z"/>
</g>
<path d="M256,0C114.8,0,0,114.8,0,256s114.8,256,256,256s256-114.8,256-256S397.2,0,256,0z M256,494.9
	C124.2,494.9,17.1,387.8,17.1,256S124.2,17.1,256,17.1S494.9,124.2,494.9,256S387.8,494.9,256,494.9z"/>
</svg>
