<svg class="social-icon" id="social_icon_rss_circle" xmlns="http://www.w3.org/2000/svg" viewBox="0 0 512 512"><path d="M256-.544C114.528-.544-.544 114.528-.544 256S114.528 512.544 256 512.544 512.544 397.472 512.544 256 397.472-.544 256-.544zm0 496C123.968 495.456 16.544 388.032 16.544 256S123.968 16.544 256 16.544 495.456 123.968 495.456 256 388.032 495.456 256 495.456zm-87.968-272.24c-4.72 0-8.544 3.824-8.544 8.544s3.824 8.544 8.544 8.544c36.048 0 66.24 11.152 87.264 32.256 21.04 21.088 32.16 51.328 32.16 87.44 0 4.72 3.824 8.544 8.544 8.544s8.544-3.824 8.544-8.544c.016-40.736-12.832-75.136-37.12-99.52-24.336-24.368-58.688-37.264-99.392-37.264zm.048-78.784c-4.72 0-8.544 3.824-8.544 8.544s3.824 8.544 8.544 8.544c114.24 0 200.368 85.328 200.368 198.464 0 4.72 3.824 8.544 8.544 8.544s8.544-3.824 8.544-8.544c.016-122.88-93.472-215.552-217.456-215.552zm23.904 157.68c-17.936 0-32.528 14.608-32.528 32.56 0 17.936 14.592 32.528 32.528 32.528 17.952 0 32.56-14.592 32.56-32.544-.016-17.952-14.624-32.544-32.56-32.544zm0 48c-8.512 0-15.44-6.928-15.44-15.44 0-8.528 6.928-15.472 15.44-15.472s15.456 6.96 15.472 15.472c0 8.512-6.944 15.44-15.472 15.44z"/></svg>
