<svg class="social-icon" id="social_icon_google_circle" xmlns="http://www.w3.org/2000/svg" viewBox="0 0 512 512"><path d="M256-.544C114.528-.544-.544 114.528-.544 256S114.528 512.544 256 512.544 512.544 397.472 512.544 256 397.472-.544 256-.544zm0 496C123.968 495.456 16.544 388.032 16.544 256S123.968 16.544 256 16.544 495.456 123.968 495.456 256 388.032 495.456 256 495.456zm32.544-342.464a8.542 8.542 0 0 0-8.544-8.544h-68.16c-.416 0-.752.176-1.152.24-.912-.032-1.76-.24-2.688-.24-35.6 0-64.544 24.688-64.544 55.04s28.96 55.04 64.544 55.04c4.912 0 9.648-.56 14.256-1.456-1.2 4.656-1.856 10-1.056 15.968.752 5.584 2.976 10.928 5.888 16.128-5.936-1.04-12.048-1.744-18.416-1.744-44.032 0-79.856 26.48-79.856 59.04s35.824 59.04 79.856 59.04c44.048 0 79.872-26.48 79.872-59.04 0-16.736-9.568-31.792-24.752-42.544-.608-1.536-1.52-2.96-2.992-3.952-13.568-9.184-21.168-18.944-22.608-28.992-1.6-11.184 4.992-19.36 5.328-19.776.72-.848 1.216-1.808 1.552-2.8 16.576-9.968 27.488-26.352 27.488-44.928 0-14.736-6.912-28.064-18-37.952H280c4.72.032 8.544-3.808 8.544-8.528zm-79.872 231.456c-34.608 0-62.768-18.832-62.768-41.952s28.16-41.952 62.768-41.952 62.784 18.832 62.784 41.952-28.176 41.952-62.784 41.952zM208 237.456c-26.16 0-47.456-17.024-47.456-37.952S181.84 161.552 208 161.552s47.456 17.024 47.456 37.952S234.16 237.456 208 237.456zM404.992 192h-37.456v-38c0-4.72-3.824-8.544-8.544-8.544S350.448 149.28 352 152v40h-39.008c-4.72-.544-8.544 3.28-8.544 8s3.824 8.544 8.544 8H352v38c0 4.72 2.288 8.544 7.008 8.544s8.544-3.824 8.544-8.544v-38h37.456c4.72.544 8.544-3.28 8.544-8s-3.84-8.544-8.56-8z"/></svg>
