<svg class="social-icon" id="social_icon_github_circle" xmlns="http://www.w3.org/2000/svg" viewBox="0 0 512 512">
<path d="M256-0.5C114.5-0.5-0.5,114.5-0.5,256S114.5,512.5,256,512.5S512.5,397.5,512.5,256S397.5-0.5,256-0.5z M256,495.5
	C124,495.5,16.5,388,16.5,256S124,16.5,256,16.5S495.5,124,495.5,256S388,495.5,256,495.5z"/>
<g>
	<path d="M316.8,395.3c-0.8,0-1.5,0-2.3-0.1c-18.5,0-90,0.1-102.6,0.1c-0.7,0-1.4,0-2.1,0c-3.8-0.1-6.9-3.3-6.8-7.1
		c0.1-3.8,3.2-6.9,7-6.9c0,0,0.6,0,1.7,0c1.8-0.1,2.7-0.4,3-0.5c0-0.1,0.1-0.4,0.1-0.7c0-1.8,0-5-0.1-9.2c0-3.3-0.1-7.3-0.1-11.8
		c-22.5,2.8-36.5-4-44.5-10.6c-9.2-7.6-12.5-16.4-13.2-18.5c-6.3-15.9-14.6-20.7-15.5-21.2c-0.4-0.2-0.6-0.3-0.9-0.5
		c-3.2-2.2-11.7-8-9.3-15.7c2.2-6.9,10.9-7.6,14.5-7.5c0.1,0,0.3,0,0.4,0c20.3,1.4,30.9,19.5,31.9,21.3
		c10.8,18.4,27.2,16.6,37.8,12.8c1-4.7,2.5-9,4.5-12.7c-34.1-6.1-72.7-24.4-72.7-90.3c0-18.2,5.7-34.2,16.8-47.7
		c-2.7-8.9-5.2-25.6,3.1-46.6c0.8-2,2.4-3.5,4.4-4.1c2.9-0.9,18.6-4.3,50.7,16.8c13.2-3.4,27.2-5.1,41.8-5.2
		c14.6,0.1,28.6,1.8,41.9,5.2c32.2-21,47.8-17.7,50.6-16.8c2,0.6,3.6,2.1,4.4,4.1c8.5,21.3,5.6,38.3,3.1,46.7
		c11.1,13.5,16.7,29.5,16.7,47.7c0,66.1-38.6,84.2-72.8,90.2c3.8,7.3,5.9,16.5,5.9,26.6c0,15.4-0.1,28.8-0.2,37.7
		c0,4.4-0.1,7.7-0.1,9.5c0,0.6,0.1,0.9,0.1,0.9l0,0c0,0,0.3,0.2,1.1,0.4c2.3,0,3.5,0,3.5,0c0,0,0,0,0,0c3.7,0,6.8,2.9,7,6.7
		c0.2,3.7-2.6,6.9-6.3,7.3C318.6,395.2,317.7,395.3,316.8,395.3z M221.6,343.7c1.6,0,3.1,0.5,4.4,1.5c1.6,1.3,2.6,3.3,2.6,5.4
		c0,7.9,0.1,14.8,0.1,20c0,4.2,0.1,7.4,0.1,9.3c0,0.4,0,0.8,0,1.3c20,0,51.4,0,71.4,0c0-0.4,0-0.8,0-1.3c0-1.9,0-5.2,0.1-9.6
		c0.1-8.9,0.2-22.2,0.2-37.6c0-16.8-6.5-24.2-9.3-26.6c-2.1-1.8-3-4.7-2.1-7.4c0.8-2.7,3.1-4.6,5.9-4.9c35.8-3.9,72.4-16.3,72.4-78
		c0-16-5.3-30-15.8-41.5c-1.8-2-2.3-4.9-1.3-7.4c1.1-2.8,6.2-16.7-0.2-36.2c-5.4,0.3-17.8,2.9-38.3,16.8c-1.7,1.2-3.8,1.5-5.8,0.9
		c-13-3.6-26.8-5.5-41.3-5.5c-14.4,0.1-28.3,1.9-41.2,5.5c-2,0.6-4.1,0.2-5.8-1c-20.5-13.9-33-16.5-38.4-16.8
		c-6.1,18.8-1.8,32.4-0.2,36.3c1,2.5,0.5,5.3-1.3,7.3c-10.6,11.5-15.9,25.5-15.9,41.5c0,61.5,36.5,74,72.2,78.2
		c2.8,0.3,5.1,2.2,5.9,4.9s0,5.5-2.1,7.4c-2.6,2.2-7.1,7.6-8.6,18.7c-0.3,2.4-1.9,4.5-4.1,5.4c-6.2,2.8-15.8,5.9-26.4,4.9
		c-13.6-1.2-24.8-8.9-32.5-22.1c0-0.1-0.1-0.1-0.1-0.2c0-0.1-3.3-5.7-9.1-9.8c4.3,4.5,9.3,11.4,13.4,21.8c0.1,0.2,0.1,0.4,0.2,0.5
		c0,0,2.3,6.9,9.3,12.5c9.5,7.6,23.2,9.5,40.5,5.8C220.6,343.8,221.1,343.7,221.6,343.7z M214.7,380.9L214.7,380.9L214.7,380.9z"/>
</g>
</svg>
