<svg class="social-icon" id="social_icon_instagram_circle" xmlns="http://www.w3.org/2000/svg" viewBox="0 0 512 512">
	<path d="M256.5,138.2c-32.1,0-36.2,0.1-48.8,0.7c-12.6,0.6-21.2,2.6-28.7,5.5c-7.9,3-15.1,7.6-21,13.7c-6.6,6.6-10.6,13.2-13.7,21
		c-2.9,7.5-4.9,16.1-5.5,28.7c-0.6,12.6-0.7,16.6-0.7,48.8s0.1,36.2,0.7,48.8c0.6,12.6,2.6,21.2,5.5,28.7c3,7.8,7.1,14.4,13.7,21
		c6.6,6.6,13.2,10.6,21,13.7c7.5,2.9,16.1,4.9,28.7,5.5c12.6,0.6,16.6,0.7,48.8,0.7s36.2-0.1,48.8-0.7c12.6-0.6,21.2-2.6,28.7-5.5
		c7.9-3,15.1-7.6,21-13.7c6.6-6.6,10.6-13.2,13.7-21c2.9-7.5,4.9-16.1,5.5-28.7c0.6-12.6,0.7-16.6,0.7-48.8s-0.1-36.2-0.7-48.8
		c-0.6-12.6-2.6-21.2-5.5-28.7c-3-7.9-7.6-15.1-13.7-21c-5.9-6-13.1-10.7-21-13.7c-7.5-2.9-16.1-4.9-28.7-5.5
		C292.7,138.3,288.7,138.2,256.5,138.2z M256.5,159.5c31.6,0,35.3,0.1,47.8,0.7c11.5,0.5,17.8,2.5,22,4.1c5.5,2.1,9.5,4.7,13.6,8.8
		s6.7,8.1,8.8,13.6c1.6,4.2,3.5,10.4,4.1,22c0.6,12.5,0.7,16.2,0.7,47.8s-0.1,35.3-0.7,47.8c-0.6,11.5-2.5,17.8-4.1,22
		c-2.2,5.5-4.7,9.5-8.9,13.6s-8.1,6.7-13.6,8.8c-4.1,1.6-10.5,3.5-22,4.1c-12.6,0.6-16.3,0.7-47.9,0.7s-35.3-0.1-47.9-0.7
		c-11.5-0.6-17.9-2.5-22-4.1c-5.1-1.9-9.8-4.9-13.6-8.9c-4.1-4.1-6.8-8.1-8.9-13.6c-1.6-4.1-3.5-10.5-4.1-22
		c-0.4-12.4-0.6-16.3-0.6-47.8s0.1-35.3,0.6-47.9c0.6-11.5,2.5-17.9,4.1-22c2.1-5.6,4.7-9.5,8.9-13.6c4.1-4.1,8-6.8,13.6-8.9
		c4.1-1.6,10.4-3.5,21.9-4.1c12.6-0.4,16.3-0.6,47.9-0.6L256.5,159.5z M256.5,195.8c-33.6-0.5-61.2,26.3-61.7,59.8
		s26.3,61.2,59.8,61.7c0.6,0,1.3,0,1.9,0c33.6-0.5,60.3-28.1,59.8-61.7C315.8,222.8,289.4,196.3,256.5,195.8z M256.5,296
		c-21.8,0-39.4-17.7-39.4-39.4s17.7-39.4,39.4-39.4s39.4,17.7,39.4,39.4S278.3,296,256.5,296z M333.9,193.4c0,7.8-6.4,14.2-14.2,14.2
		c-7.8,0-14.2-6.4-14.2-14.2s6.4-14.2,14.2-14.2C327.5,179.2,333.9,185.5,333.9,193.4z"/>
	<path d="M256.5,0C115.1,0,0,115.1,0,256.5s115.1,256.5,256.5,256.5S513.1,398,513.1,256.5S398,0,256.5,0z M256.5,496
		c-132,0-239.5-107.4-239.5-239.5S124.5,17.1,256.5,17.1S496,124.5,496,256.5S388.6,496,256.5,496z"/>
</svg>
