<svg class="social-icon" id="social_icon_facebook_circle" xmlns="http://www.w3.org/2000/svg" viewBox="0 0 512 512"><path d="M256-.544C114.544-.544-.56 114.528-.56 256S114.544 512.544 256 512.544 512.56 397.472 512.56 256 397.456-.544 256-.544zm0 496C123.968 495.456 16.56 388.032 16.56 256S123.968 16.544 256 16.544 495.44 123.968 495.44 256 388.032 495.456 256 495.456zM312 112h-42.688C214.944 111.456 208 145.104 208 181.52V208h-24c-4.72-.544-8.56 3.28-8 8v48c-.56 4.72 3.28 8.544 8 8h24v120c-.496 4.72 3.328 8.544 8.048 8h48.88c4.72.544 8.544-3.28 7.04-8L272 272h40c4.72.544 8.56-3.28 8-8v-48c.56-4.72-3.28-8.544-8-8h-40.048l.048-24c1.552-10.224 1.552-8.56 11.04-8h28.624c2.224-.496 4.592-.224 6.256-1.84 1.664-1.616 2.624-3.824 2.064-6.16v-48c.576-4.72-3.264-8.544-7.984-8zm-8.56 47.104l-20.064-.768c-24.848 0-26.928 13.488-26.928 27.296l-.064 30.336c0 2.272.896 4.448 2.496 6.064a8.548 8.548 0 0 0 6.048 2.496H304v30.912h-39.04c-4.72 0-8.544 3.824-8.56 8.544L256.384 384H224V264c0-4.72-3.216-8.544-7.952-8.544H192v-30.912h24.048a8.548 8.548 0 0 0 6.048-2.496c1.6-1.616 1.888-3.792 1.888-6.064v-34.48c0-35.872 7.248-52.96 45.312-52.96h34.128v30.56z"/></svg>
