<svg class="social-icon" id="social_icon_youtube" xmlns="http://www.w3.org/2000/svg" viewBox="0 0 512 512">
<g>
	<path d="M443.7,80.3l-112.9-9.9c-49.8-4.3-99.9-4.3-149.7,0L68.3,80.3C29.6,83.5-0.2,115.9,0,154.7v202.7
		c-0.2,38.8,29.6,71.3,68.3,74.4l112.9,9.8c24.8,2.1,49.8,3.2,74.9,3.2c25,0,50-1.1,74.9-3.2l112.9-9.8
		c38.7-3.2,68.3-35.6,68.1-74.4V154.7C512.2,115.9,482.4,83.5,443.7,80.3z"/>
	<path class="st0" d="M357.8,247.1l-149.3-96c-5-3.2-11.6-1.8-14.7,3.2c-1.1,1.7-1.7,3.7-1.7,5.8v192c0,5.9,4.8,10.7,10.7,10.7
		c2,0,4.1-0.6,5.8-1.7l149.3-96c5-3.2,6.4-9.8,3.2-14.7C360.2,249,359.1,247.9,357.8,247.1L357.8,247.1z"/>
</g>
</svg>
