<svg class="social-icon" id="social_icon_soundcloud" xmlns="http://www.w3.org/2000/svg" viewBox="0 0 512 512">
<g>
	<path class="st0" d="M17.2,344.5l8.4-35.9l-8.4-37.1c-0.2-1.1-2.3-1.9-4.9-1.9c-2.6,0-4.7,0.8-4.9,2l-7.4,37l7.4,35.9
		c0.2,1.1,2.3,2,4.9,2C14.9,346.4,17,345.6,17.2,344.5z M69.7,364.4l7.1-55.4l-7.1-85.7c-0.2-2.2-2.9-3.9-6.1-3.9
		c-3.3,0-5.9,1.7-6.1,3.9L51.2,309l6.3,55.4c0.2,2.2,2.8,3.9,6.1,3.9C66.8,368.3,69.5,366.6,69.7,364.4z M122.1,363.5L128,309
		l-5.9-114.1c-0.2-2.7-3.3-4.8-7.2-4.8c-3.9,0-7.1,2.1-7.2,4.8L102.4,309l5.3,54.5c0.1,2.7,3.3,4.8,7.2,4.8
		C118.7,368.2,121.9,366.2,122.1,363.5z M174.3,362.7l4.9-53.6l-4.9-114.9c-0.1-3.2-3.7-5.7-8.2-5.7c-4.5,0-8.1,2.5-8.2,5.7
		L153.6,309l4.4,53.6c0.1,3.1,3.7,5.6,8.2,5.6C170.6,368.3,174.2,365.8,174.3,362.7z M226.5,362l3.9-52.9l-3.9-131.8
		c-0.1-3.6-4.2-6.6-9.1-6.6c-5,0-9.1,2.9-9.1,6.6L204.8,309c0,0.1,3.5,53,3.5,53c0.1,3.6,4.2,6.5,9.1,6.5
		C222.4,368.5,226.5,365.6,226.5,362z M263.1,368.5c0.2,0,181.7,0.1,182.9,0.1c36.4,0,66-28.6,66-63.8c0-35.3-29.5-63.8-66-63.8
		c-9,0-17.7,1.8-25.5,5c-5.2-57.5-55.1-102.6-115.9-102.6c-14.9,0-29.4,2.8-42.2,7.6c-5,1.9-6.3,3.8-6.3,7.5V361
		C256.1,364.9,259.2,368.2,263.1,368.5z"/>
</g>
</svg>
