<svg class="social-icon" id="social_icon_dribbble_circle" xmlns="http://www.w3.org/2000/svg" viewBox="0 0 512 512"><path d="M256-.544C114.528-.544-.544 114.528-.544 256S114.528 512.544 256 512.544 512.544 397.472 512.544 256 397.472-.544 256-.544zm0 496C123.968 495.456 16.544 388.032 16.544 256S123.968 16.544 256 16.544 495.456 123.968 495.456 256 388.032 495.456 256 495.456zm93.616-327.376c-24.608-26.208-57.84-40.624-93.616-40.624-16.8 0-33.2 3.232-48.752 9.632-44.128 18.08-74.448 58.752-79.152 106.096-.4 4.224-.64 8.48-.64 12.816 0 38.848 17.312 75.2 47.536 99.76 22.832 18.56 51.616 28.784 81.008 28.784 18.544 0 36.576-3.968 53.632-11.808 34.816-16.032 60.48-46.416 70.416-83.376v-.016c2.976-11.2 4.496-22.416 4.496-33.344 0-32.736-12.4-63.952-34.928-87.92zm15.76 108.8c-2.832-.608-5.584-.88-8.4-1.376-3.728-.656-7.456-1.344-11.136-1.824-4.368-.56-8.64-.848-12.928-1.136-3.456-.224-6.912-.528-10.304-.576-1.056-.016-2.176-.176-3.232-.176-5.632 0-11.216.272-16.768.752-.72.064-1.424.208-2.144.272-4.48.448-8.944.96-13.328 1.728-.72-1.872-1.536-3.632-2.272-5.488a736.22 736.22 0 0 0-9.216-22.272c-.784-1.792-1.472-3.68-2.256-5.456 1.68-.672 3.184-1.424 4.816-2.128 1.664-.72 3.328-1.424 4.928-2.176a178.157 178.157 0 0 0 10.192-5.184c1.04-.576 2.144-1.104 3.152-1.68 4.16-2.4 8.08-4.912 11.776-7.488.88-.624 1.68-1.264 2.528-1.888 2.784-2.032 5.456-4.08 7.968-6.16a184.244 184.244 0 0 0 3.152-2.72 158.21 158.21 0 0 0 6.24-5.76c.896-.864 1.792-1.728 2.64-2.608 2.24-2.288 4.32-4.576 6.288-6.848.384-.448.832-.896 1.2-1.344a156.95 156.95 0 0 0 5.856-7.376c15.104 19.472 23.328 43.248 23.328 68.032 0 6.832-.704 13.824-2.08 20.88zM256 144.544c28.736 0 55.584 10.752 76.352 30.432-.224.336-.416.64-.656.96-.608.848-1.28 1.712-1.92 2.56a143.89 143.89 0 0 1-3.712 4.72c-.784.944-1.6 1.904-2.432 2.848a144.838 144.838 0 0 1-4.352 4.736c-.912.96-1.84 1.92-2.816 2.88-1.712 1.68-3.568 3.36-5.456 5.024-.944.832-1.824 1.664-2.816 2.496-2.944 2.464-6.048 4.896-9.408 7.248-.208.144-.464.288-.688.448a144.198 144.198 0 0 1-10.048 6.368c-1.296.752-2.72 1.456-4.08 2.192-2.592 1.408-5.248 2.784-8.032 4.08-1.712.8-3.52 1.568-5.312 2.32-1.44.608-2.992 1.168-4.48 1.76-.4-.848-.816-1.584-1.216-2.432-3.344-6.96-6.688-13.712-10-20.048-.256-.496-.512-.944-.768-1.44a642.338 642.338 0 0 0-9.344-17.184c-.704-1.248-1.392-2.496-2.096-3.712a724.214 724.214 0 0 0-8.96-15.28c-.656-1.088-1.264-2.064-1.904-3.104a630.595 630.595 0 0 0-7.44-11.84c-.24-.368-.528-.848-.768-1.216A111.033 111.033 0 0 1 256 144.544zm-48.624 11.2l.288.432a637.3 637.3 0 0 1 8.144 12.8 245.33 245.33 0 0 1 1.84 2.992 566.332 566.332 0 0 1 9.2 15.504c.352.608.704 1.264 1.056 1.872 2.992 5.248 6.064 10.864 9.184 16.72.592 1.12 1.184 2.208 1.792 3.36a659.212 659.212 0 0 1 10.016 19.936c.24.496.48 1.008.72 1.504-5.312 1.488-10.528 3.104-16.192 4.176-.864.16-1.76.272-2.624.432-17.184 3.04-35.936 4.128-56 3.36-1.552-.064-3.056-.064-4.64-.144-7.712-.4-15.776-1.328-23.872-2.288 6.24-35.12 28.88-65.056 61.088-80.656zM144.544 256c0-.768.016-1.552.032-2.32 2.272.272 4.384.288 6.64.512 6.272.64 12.432 1.136 18.496 1.456 3.6.192 7.168.336 10.688.4 2.16.048 4.464.256 6.592.256h.016c4.592 0 9.008-.272 13.456-.48 1.872-.08 3.792-.08 5.632-.192a259.346 259.346 0 0 0 24.08-2.704c2.016-.32 3.92-.768 5.888-1.136a212.04 212.04 0 0 0 17.376-4c1.168-.32 2.448-.48 3.584-.832.816 1.808 1.6 3.648 2.4 5.488a662.172 662.172 0 0 1 8.704 20.864c.672 1.696 1.344 3.408 2.016 5.12-1.728.496-3.328 1.12-5.024 1.664-2.208.688-4.4 1.392-6.528 2.16-3.504 1.248-6.864 2.624-10.192 4.048-1.808.784-3.664 1.504-5.424 2.336-3.984 1.872-7.808 3.888-11.52 5.984-.896.496-1.856.96-2.736 1.472-4.56 2.656-8.88 5.472-13.008 8.368-1.152.8-2.192 1.648-3.312 2.464-2.912 2.144-5.776 4.288-8.464 6.496-1.36 1.12-2.624 2.24-3.936 3.36a221.918 221.918 0 0 0-6.624 5.92c-1.28 1.216-2.528 2.4-3.744 3.616a205.109 205.109 0 0 0-5.568 5.712c-1.136 1.216-2.288 2.416-3.36 3.616-.4.448-.864.912-1.264 1.344-22.256-21.04-34.896-50.112-34.896-80.992zm48.288 91.792c.288-.32.512-.608.8-.928.96-1.072 2.016-2.144 3.024-3.232a172.768 172.768 0 0 1 5.104-5.232 178.62 178.62 0 0 1 3.52-3.36 187.879 187.879 0 0 1 5.808-5.216c1.28-1.104 2.56-2.208 3.888-3.296 2.208-1.808 4.544-3.568 6.896-5.312 1.296-.96 2.544-1.936 3.872-2.864 3.2-2.24 6.56-4.384 10.016-6.464.64-.384 1.216-.8 1.872-1.184a164.97 164.97 0 0 1 12.976-6.768c1.376-.64 2.848-1.184 4.256-1.792 3.248-1.408 6.544-2.768 9.984-3.984 1.824-.64 3.712-1.2 5.6-1.792 1.856-.576 3.808-1.072 5.728-1.6 3.6 10.032 7.12 20.128 10.272 30.464.144.464.304.896.448 1.36 3.312 10.976 6.192 22.16 8.96 33.392-34.208 13.232-73.312 8.384-103.024-12.192zm118.944 4.576c-2.528-10.048-5.312-20.016-8.272-29.872-.112-.384-.208-.784-.32-1.168a683.999 683.999 0 0 0-9.888-30.128c2.32-.368 4.624-.8 6.976-1.072 1.952-.224 3.904-.48 5.872-.624a178.472 178.472 0 0 1 17.376-.48c.656.016 1.296-.048 1.952-.016 6.608.224 13.312.864 20.112 1.792 1.84.256 3.712.64 5.568.944 3.168.528 6.384 1.232 9.584 1.904-8.864 24.8-26.144 45.536-48.96 58.72z"/></svg>
