<svg lass="social-icon" id="social_icon_tumblr_circle" xmlns="http://www.w3.org/2000/svg" viewBox="0 0 512 512"><path d="M256-.544C114.528-.544-.544 114.528-.544 256S114.528 512.544 256 512.544 512.544 397.472 512.544 256 397.472-.544 256-.544zm0 496C123.968 495.456 16.544 388.032 16.544 256S123.968 16.544 256 16.544 495.456 123.968 495.456 256 388.032 495.456 256 495.456zM327.968 192H272v-56.016c.528-4.72-3.296-8.544-8.016-8.544H222.72c-4.32 0-7.952 3.2-8.48 7.504-1.52 12.208-4.256 22.224-8.112 29.808a62.07 62.07 0 0 1-15.2 19.344c-5.136 4.368-13.968 8.672-25.52 12.4-3.536 1.136-5.92 4.432-5.408 8.144v43.344c-.512 4.72 3.312 8.544 8.032 8.016L192 272v74.688c-.544-4.816.592-1.552 2.816 3.696l.944 2.272c.08.208 8.192 20.368 17.952 28.784 7.2 6.176 15.92 10.976 25.92 14.272 9.36 3.056 17.296 4.832 30.256 4.832 10.912 0 21.232-1.104 30.72-3.312 10.896-2.544 20.752-5.984 31.008-10.832 3.008-1.408 4.912-4.416 4.384-7.728v-38.48c.512-3.136-1.2-6.032-3.968-7.536s-6.128-1.344-8.768.384c-11.28 7.408-17.328 8.736-28.736 8.736-5.312 0-9.92-1.088-14.096-3.376-1.68-3.056-4.112-12.448-5.04-16.144-.832-3.184-1.536-5.792-2.016-7.088-.88-2.336-.88-10.688-.864-20.352l.016-38.816h55.44c4.72.528 8.544-3.296 8.032-8.016v-48c.512-4.72-3.312-8.544-8.032-7.984zm-8.544 48h-55.44c-4.72-.56-8.544 3.264-7.984 7.984l-.032 46.784c-.576 13.648-.576 21.152 1.392 26.4.368.976.848 2.944 1.472 5.344 4.064 15.824 6.624 22.944 11.888 26.032 7.008 4.192 15.008 6.32 23.808 6.32 9.168 0 16.528-.8 24.896-4.304v18.56c-7.44 3.184-14.784 5.584-22.72 7.44-8.208 1.904-17.216 2.88-26.832 2.88-10.784 0-16.864-1.344-24.928-3.984-7.84-2.592-14.624-6.304-20.112-11.008-4.352-3.744-10.464-15.264-13.2-22.128l-1.056-2.576c-1.52-3.6-2.032-4.816-2.576-13.056v-82.704c.544-4.72-3.28-8.544-8-8.544h-23.424v-28.704c11.008-4.016 19.536-8.592 25.424-13.632 8.064-6.848 14.576-15.12 19.376-24.608 3.888-7.664 6.816-17.024 8.72-27.968h25.344v55.456c0 4.72 3.824 8.544 8.544 8.016h55.44v32z"/></svg>
