<svg class="social-icon" id="social_icon_instagram"  xmlns="http://www.w3.org/2000/svg" viewBox="0 0 512 512">
<path d="M256,0c-69.5,0-78.2,0.3-105.5,1.5c-27.3,1.3-45.8,5.6-62.1,11.9C71.2,19.9,55.8,29.9,43,43c-14.2,14.2-23,28.5-29.5,45.3
	c-6.3,16.3-10.7,34.9-11.9,62.1C0.3,177.8,0,186.5,0,256s0.3,78.2,1.5,105.5c1.3,27.3,5.6,45.9,11.9,62.1
	C20,440.5,28.7,454.8,43,469c14.2,14.2,28.5,23,45.3,29.5c16.3,6.3,34.9,10.7,62.1,11.9c27.3,1.3,36,1.5,105.5,1.5
	s78.2-0.3,105.5-1.5c27.3-1.3,45.9-5.6,62.1-11.9c17.1-6.4,32.6-16.5,45.3-29.5c14.2-14.2,23-28.5,29.5-45.3
	c6.3-16.3,10.7-34.9,11.9-62.1c1.3-27.3,1.5-36,1.5-105.5s-0.3-78.2-1.5-105.5c-1.3-27.3-5.6-45.9-11.9-62.1
	C492.1,71.2,482.1,55.8,469,43c-12.8-13.1-28.2-23.1-45.3-29.5c-16.3-6.3-34.9-10.7-62.1-11.9C334.2,0.3,325.5,0,256,0z M256,46.1
	c68.4,0,76.5,0.3,103.5,1.5c25,1.2,38.5,5.3,47.5,8.8c12,4.6,20.5,10.2,29.4,19.1s14.5,17.5,19.1,29.4c3.5,9,7.7,22.6,8.8,47.5
	c1.2,27,1.5,35.1,1.5,103.5s-0.3,76.5-1.6,103.5c-1.3,25-5.4,38.5-9,47.5c-4.8,12-10.2,20.5-19.2,29.4c-9,9-17.6,14.5-29.4,19.1
	c-9,3.5-22.7,7.7-47.7,8.8c-27.2,1.2-35.2,1.5-103.7,1.5s-76.5-0.3-103.7-1.6c-25-1.3-38.7-5.4-47.7-9
	c-11.1-4.1-21.2-10.7-29.4-19.2c-9-9-14.7-17.6-19.2-29.4c-3.5-9-7.7-22.7-9-47.7c-1-26.9-1.3-35.2-1.3-103.4s0.3-76.5,1.3-103.7
	c1.3-25,5.4-38.7,9-47.7c4.5-12.2,10.2-20.5,19.2-29.4S91.8,60.1,104,55.6c9-3.5,22.4-7.7,47.4-9c27.2-1,35.2-1.3,103.7-1.3
	L256,46.1z M256,124.5c-72.6-1.1-132.4,56.8-133.5,129.4s56.8,132.4,129.4,133.5c1.4,0,2.7,0,4.1,0c72.6-1.1,130.5-60.9,129.4-133.5
	C384.3,182.9,327,125.7,256,124.5z M256,341.3c-47.1,0-85.3-38.2-85.3-85.3s38.2-85.3,85.3-85.3s85.3,38.2,85.3,85.3
	S303.1,341.3,256,341.3z M423.4,119.4c0,17-13.8,30.7-30.7,30.7s-30.7-13.8-30.7-30.7s13.8-30.7,30.7-30.7S423.4,102.4,423.4,119.4z
	"/>
</svg>
