<svg class="social-icon" id="social_icon_soundcloud_circle" xmlns="http://www.w3.org/2000/svg" viewBox="0 0 512 512">
<g>
	<g>
		<path class="st0" d="M379.8,335.1c-1.2,0-118.6,0-119.1-0.1l-0.2,0c-5.7-0.5-10-5.2-10-10.8l0-131.5c0.1-6.7,4.6-9.2,8-10.5
			c9.3-3.5,19.5-5.3,29.5-5.3c20.5,0,40.1,7.4,55.1,20.8c13.1,11.7,21.9,27.1,25.1,43.9c3.8-0.9,7.7-1.4,11.6-1.4
			c26.9,0,48.8,21.3,48.8,47.4C428.6,313.8,406.7,335.1,379.8,335.1z M262.5,323c13,0,116.3,0.1,117.3,0.1
			c20.3,0,36.8-15.9,36.8-35.4c0-19.5-16.5-35.4-36.8-35.4c-4.9,0-9.7,0.9-14.3,2.8l-7.5,3l-0.7-8c-1.5-16.6-9.4-32-22.1-43.4
			c-12.9-11.5-29.6-17.8-47.2-17.8c-8.6,0-17.3,1.6-25.3,4.6c-0.1,0-0.2,0.1-0.2,0.1V323z M231.5,335c-6.5,0-11.7-4.3-11.9-9.9
			c-2.2-34.4-2.2-34.4-2.2-34.7l0-0.2l2.2-85.5c0.1-5.7,5.4-10.1,11.9-10.1c6.6,0,11.8,4.4,11.9,10.1l2.5,85.8l-2.5,34.5
			C243.1,330.7,237.9,335,231.5,335z M231.4,323C231.4,323,231.5,323,231.4,323l2.5-32.7l-2.4-83l-2.2,83
			C229.4,292.7,230.7,311.7,231.4,323z M231.4,205.1C231.4,205.1,231.4,205.1,231.4,205.1L231.4,205.1z M231.5,205L231.5,205
			C231.5,205,231.5,205,231.5,205z M198.2,334.9c-6.1,0-11-4.1-11.3-9.3l-2.8-35l0-0.4l2.8-74.6c0.2-5.4,5.1-9.5,11.3-9.5
			c6.2,0,11.1,4.1,11.3,9.5l3.2,75l-3.2,35.1C209.2,330.9,204.4,334.9,198.2,334.9z M196.1,290.3l2.2,26.7l2.4-26.7l-2.4-57.4
			L196.1,290.3z M197.5,216.1C197.5,216.1,197.5,216.1,197.5,216.1L197.5,216.1z M198.9,216L198.9,216
			C198.9,216,198.9,216,198.9,216z M164.9,334.8c-5.8,0-10.3-3.7-10.7-8.6l-3.5-35.7l3.4-74.5c0.3-5,4.8-8.8,10.7-8.8
			c5.8,0,10.4,3.8,10.7,8.7l3.9,74.6l-3.9,35.7C175.2,331.2,170.6,334.8,164.9,334.8z M162.8,290.2l2.2,22.3l2.4-22.3l-2.4-46.6
			L162.8,290.2z M131.6,334.8c-5.3,0-9.5-3.4-9.9-7.9l-4.1-36.4l4.1-56.2c0.3-4.6,4.6-8.1,9.9-8.1c5.2,0,9.5,3.4,9.9,8l4.7,56.3
			l-4.7,36.5C141.1,331.5,136.8,334.8,131.6,334.8z M129.6,290.3l2.1,18.8l2.4-18.8l-2.4-29.1L129.6,290.3z M98.4,320.7
			c-4.8,0-8.3-2.4-9.1-6.1l-5-24.4l5-25.2c0.7-3.7,4.3-6.1,9.1-6.1c4.7,0,8.3,2.4,9.1,6l5.7,25.3l-5.8,24.6
			C106.6,318.4,103.1,320.7,98.4,320.7z M96.5,290.1l2,9.8l2.3-9.8L98.5,280L96.5,290.1z M95.7,267.4c0,0.1,0,0.1,0,0.2L95.7,267.4z
			"/>
	</g>
</g>
<path d="M256.5,0C115.3,0,0.5,114.8,0.5,256s114.8,256,256,256s256-114.8,256-256S397.7,0,256.5,0z M256.5,494.9
	C124.7,494.9,17.6,387.8,17.6,256S124.7,17.1,256.5,17.1S495.4,124.2,495.4,256S388.3,494.9,256.5,494.9z"/>
</svg>
