<svg class="social-icon" id="social_icon_twitter_bird_circle" xmlns="http://www.w3.org/2000/svg" viewBox="0 0 512 512"><path d="M256-.544C114.544-.544-.56 114.528-.56 256S114.544 512.544 256 512.544 512.56 397.472 512.56 256 397.456-.544 256-.544zm0 496C123.968 495.456 16.56 388.032 16.56 256S123.968 16.544 256 16.544 495.44 123.968 495.44 256 388.032 495.456 256 495.456zm140.704-318.72a59.666 59.666 0 0 0 4.368-10.288 8.56 8.56 0 0 0-2.816-9.296c-2.768-2.208-6.64-2.464-9.68-.672-8.208 4.88-17.04 8.48-26.336 10.768-11.168-10.096-25.84-15.792-40.992-15.792-33.68 0-61.072 27.392-61.072 61.04 0 .848.016 1.68.048 2.528-35.76-4.464-68.768-22.64-91.76-50.848-1.76-2.176-4.48-3.312-7.296-3.12a8.513 8.513 0 0 0-6.72 4.24A61.013 61.013 0 0 0 146.176 196a61.039 61.039 0 0 0 7.216 28.832 10.048 10.048 0 0 0-3.424 1.248c-2.608 1.552-4.224 4.672-4.224 7.696 0 18.16 8.08 34.832 21.104 46.16-.192.176-.368.368-.56.56a8.55 8.55 0 0 0-1.728 8.288 61.057 61.057 0 0 0 34.944 37.84c-16.656 8.24-36 11.456-54.496 9.264-3.904-.352-7.696 1.856-9.056 5.632a8.57 8.57 0 0 0 3.44 10.08c25.472 16.32 54.896 24.944 85.104 24.944 98.88 0 157.984-80.32 157.984-157.968 0-.88 0-1.744-.016-2.624a113.945 113.945 0 0 0 24.656-26.56 8.557 8.557 0 0 0-.56-10.256c-2.416-2.864-6.4-3.856-9.856-2.4zm-27.92 28.08a8.567 8.567 0 0 0-3.552 7.376c.096 2.112.144 4.256.144 6.368 0 69.248-52.688 140.88-140.864 140.88a140.17 140.17 0 0 1-46.192-7.808c17.68-3.376 34.256-10.912 48.72-22.24a8.56 8.56 0 0 0 2.832-9.456 8.554 8.554 0 0 0-7.952-5.824c-14.256-.288-27.184-7.376-35.104-18.592a61.345 61.345 0 0 0 11.872-1.984c3.824-1.04 6.416-4.576 6.288-8.544-.128-3.952-2.976-7.312-6.864-8.096-16.048-3.216-28.64-15.088-33.296-30.48a61.588 61.588 0 0 0 12.992 1.84c3.76-.016 7.248-2.32 8.416-5.936s-.208-7.6-3.392-9.712c-12.24-8.192-19.552-21.856-19.552-36.592 0-3.568.432-7.088 1.264-10.528 27.696 28.4 65.28 45.552 105.088 47.552 2.816.016 5.28-.992 6.992-3.056s2.368-4.8 1.76-7.424a44.544 44.544 0 0 1-1.136-10.032c0-24.24 19.728-43.952 43.968-43.952 12.112 0 23.808 5.056 32.08 13.888 2.016 2.16 4.992 3.104 7.904 2.544a115.82 115.82 0 0 0 7.824-1.84 40.609 40.609 0 0 1-3.616 2.416c-3.456 2.064-4.992 6.288-3.696 10.096s5.184 6.304 9.104 5.712c.976-.112 1.936-.24 2.912-.368a89.683 89.683 0 0 1-4.944 3.792z"/></svg>
