<svg class="icon" id="video" xmlns="http://www.w3.org/2000/svg" viewBox="0 0 592 512"><path d="M120 0H24C10.096 0 0 10.096 0 24v464c0 13.904 10.096 24 24 24h544c13.904 0 24-10.096 24-24V24c0-13.904-10.096-24-24-24H120zM16 488V24c0-5.008 2.992-8 8-8h88v480H24c-5.008 0-8-2.992-8-8zm112 8V16h336v480H128zM576 24v464c0 5.008-2.992 8-8 8h-88V16h88c5.008 0 8 2.992 8 8zM236.432 161.344a8.03 8.03 0 0 0-8.224-.4A8.026 8.026 0 0 0 224 168v192a8.01 8.01 0 0 0 4.224 7.056A8.101 8.101 0 0 0 232 368a7.961 7.961 0 0 0 4.432-1.344l144-96c2.224-1.488 3.568-3.984 3.568-6.656s-1.344-5.168-3.568-6.656l-144-96zM240 345.056V182.944L361.584 264 240 345.056zM80 128H48c-4.416 0-8 3.584-8 8s3.584 8 8 8h32c4.416 0 8-3.584 8-8s-3.584-8-8-8zM48 80h32c4.416 0 8-3.584 8-8s-3.584-8-8-8H48c-4.416 0-8 3.584-8 8s3.584 8 8 8zm32 112H48c-4.416 0-8 3.584-8 8s3.584 8 8 8h32c4.416 0 8-3.584 8-8s-3.584-8-8-8zm0 64H48c-4.416 0-8 3.584-8 8s3.584 8 8 8h32c4.416 0 8-3.584 8-8s-3.584-8-8-8zm0 64H48c-4.416 0-8 3.584-8 8s3.584 8 8 8h32c4.416 0 8-3.584 8-8s-3.584-8-8-8zm0 64H48c-4.416 0-8 3.584-8 8s3.584 8 8 8h32c4.416 0 8-3.584 8-8s-3.584-8-8-8zm0 64H48c-4.416 0-8 3.584-8 8s3.584 8 8 8h32c4.416 0 8-3.584 8-8s-3.584-8-8-8zm432-304h32c4.416 0 8-3.584 8-8s-3.584-8-8-8h-32c-4.416 0-8 3.584-8 8s3.584 8 8 8zm0-64h32c4.416 0 8-3.584 8-8s-3.584-8-8-8h-32c-4.416 0-8 3.584-8 8s3.584 8 8 8zm0 128h32c4.416 0 8-3.584 8-8s-3.584-8-8-8h-32c-4.416 0-8 3.584-8 8s3.584 8 8 8zm0 64h32c4.416 0 8-3.584 8-8s-3.584-8-8-8h-32c-4.416 0-8 3.584-8 8s3.584 8 8 8zm0 64h32c4.416 0 8-3.584 8-8s-3.584-8-8-8h-32c-4.416 0-8 3.584-8 8s3.584 8 8 8zm0 64h32c4.416 0 8-3.584 8-8s-3.584-8-8-8h-32c-4.416 0-8 3.584-8 8s3.584 8 8 8zm32 48h-32c-4.416 0-8 3.584-8 8s3.584 8 8 8h32c4.416 0 8-3.584 8-8s-3.584-8-8-8z"/></svg>
