<svg class="icon" id="warning" xmlns="http://www.w3.org/2000/svg" viewBox="0 0 560 512"><path d="M348.784 47.264C331.104 16.8 307.04 0 281.024 0c-26.016 0-50.096 16.8-67.776 47.264L16.944 385.392c-17.92 31.152-19.84 63.504-5.28 88.736 13.856 24 41.04 37.808 74.624 37.872H475.76c33.632-.064 60.864-13.824 74.672-37.776 14.48-25.072 12.528-57.296-5.36-88.4L348.784 47.264zm187.808 418.96c-10.896 18.88-33.072 29.728-60.864 29.776H86.304c-27.696-.048-49.84-10.944-60.784-29.872-11.632-20.16-9.696-46.672 5.28-72.736L227.088 55.296C241.792 29.952 260.944 16 281.024 16s39.232 13.952 53.92 39.296l196.288 338.512c14.96 26.016 16.912 52.416 5.36 72.416zM281.024 320c4.416 0 8-3.584 8-8V152c0-4.416-3.584-8-8-8s-8 3.584-8 8v160c0 4.416 3.584 8 8 8zM280 360c-17.648 0-32 14.352-32 32s14.352 32 32 32 32-14.352 32-32-14.352-32-32-32zm0 48c-8.816 0-16-7.168-16-16s7.184-16 16-16 16 7.168 16 16-7.184 16-16 16z"/></svg>
