<svg class="icon" id="world" xmlns="http://www.w3.org/2000/svg" viewBox="0 0 512 512"><path d="M.544 266.688C6.208 402.864 118.448 512 256 512s249.792-109.136 255.456-245.312c.304-.848.544-1.728.544-2.688 0-.576-.208-1.072-.32-1.6.048-2.144.32-4.24.32-6.4C512 114.848 397.152 0 256 0S0 114.848 0 256c0 2.16.272 4.256.32 6.4-.112.528-.32 1.024-.32 1.6 0 .96.24 1.84.544 2.688zm398.192 97.184c-21.104-8.832-43.76-15.664-67.44-20.336 2.528-23.248 4.016-47.392 4.48-71.52h79.68c-1.456 32.864-7.296 63.888-16.72 91.856zM431.44 272h63.744c-2.976 44.896-18.208 86.448-42.608 121.264-12.144-8.528-25.232-16.304-39.312-23.04 10.32-29.904 16.672-63.088 18.176-98.224zm-233.216 84.576C217.072 353.632 236.416 352 256 352c19.584 0 38.928 1.632 57.76 4.576C302.656 441.936 278.4 496 256 496s-46.656-54.064-57.776-139.424zm24.304 134.048c-44.016-14.112-81.248-55.536-103.712-111.744 19.936-8.4 41.376-14.96 63.84-19.472 7.344 55.936 20.768 104.672 39.872 131.216zm-26.144-319.28C215.856 174.352 235.824 176 256 176c20.176 0 40.144-1.648 59.616-4.656C318.368 197.264 320 225.552 320 256H192c0-30.448 1.632-58.736 4.384-84.656zM319.76 272c-.448 24.4-1.888 47.376-4.16 68.656C296.144 337.648 276.192 336 256 336s-40.144 1.648-59.616 4.656c-2.768-26.016-3.792-48.912-4.16-68.656H319.76zm9.6 87.408c22.464 4.512 43.888 11.072 63.84 19.472-22.464 56.208-59.696 97.632-103.712 111.744 19.088-26.544 32.512-75.28 39.872-131.216zM336 256c0-29.376-1.632-59.136-4.704-87.52 23.68-4.672 46.336-11.52 67.44-20.336C409.68 180.608 416 217.184 416 256h-80zm-6.64-103.408C322 96.656 308.592 47.904 289.472 21.376c44.016 14.112 81.248 55.536 103.712 111.744-19.936 8.4-41.36 14.976-63.824 19.472zm-15.584 2.832C294.928 158.368 275.584 160 256 160s-38.928-1.632-57.776-4.576C209.344 70.064 233.6 16 256 16c22.4 0 46.656 54.064 57.776 139.424zm-131.136-2.832c-22.464-4.512-43.888-11.072-63.84-19.472 22.464-56.208 59.696-97.632 103.712-111.744C203.424 47.92 190 96.656 182.64 152.592zm-1.936 15.888C177.632 196.864 176 226.624 176 256H96c0-38.816 6.32-75.392 17.264-107.872 21.104 8.832 43.76 15.664 67.44 20.352zM176.224 272c.464 24.128 1.952 48.272 4.48 71.536-23.68 4.672-46.336 11.52-67.44 20.336C103.84 335.904 98 304.88 96.544 272h79.68zM98.72 370.224c-14.08 6.752-27.152 14.512-39.296 23.04-24.4-34.816-39.632-76.352-42.608-121.264H80.56c1.504 35.136 7.856 68.32 18.16 98.224zM69.008 406.08c10.96-7.664 22.672-14.752 35.312-20.88 16.064 39.76 39.184 72.768 66.976 95.088C130.88 464.96 95.632 439.2 69.008 406.08zm271.696 74.192c27.808-22.304 50.912-55.328 66.976-95.088 12.64 6.144 24.352 13.216 35.312 20.88-26.624 33.136-61.872 58.896-102.288 74.208zM432 256c0-41.072-6.848-79.792-18.72-114.224a276.034 276.034 0 0 0 39.312-23.04C479.856 157.68 496 204.96 496 256h-64zm11.008-150.08c-10.96 7.664-22.672 14.736-35.312 20.88-16.064-39.76-39.184-72.784-66.976-95.088 40.4 15.328 75.648 41.088 102.288 74.208zM171.296 31.728c-27.808 22.304-50.912 55.328-66.976 95.088-12.656-6.144-24.352-13.232-35.312-20.896C95.632 72.8 130.88 47.04 171.296 31.728zM59.424 118.736a274.967 274.967 0 0 0 39.296 23.04C86.848 176.208 80 214.928 80 256H16c0-51.04 16.144-98.32 43.424-137.264z"/></svg>
